<?xml version="1.0" encoding="UTF-8"?>
<svg id="Layer_2" data-name="Layer 2" xmlns="http://www.w3.org/2000/svg" viewBox="0 0 676.63 237.63">
  <defs>
    <style>
      .cls-1 {
        fill: #1d1d1b;
        font-family: Montserrat-Regular, Montserrat;
        font-size: 25px;
      }

      .cls-2 {
        letter-spacing: -.02em;
      }

      .cls-3 {
        letter-spacing: 0em;
      }

      .cls-4 {
        letter-spacing: 0em;
      }

      .cls-5 {
        letter-spacing: -.06em;
      }

      .cls-6 {
        fill: #3a3a3a;
      }

      .cls-7 {
        letter-spacing: 0em;
      }

      .cls-8 {
        fill: #0090b7;
      }

      .cls-9 {
        letter-spacing: 0em;
      }
    </style>
  </defs>
  <g id="Tours">
    <g>
      <g>
        <path class="cls-6" d="m120.96,164.98h3.88l3.5,24.35c.09.59.55,1.04,1.15,1.11.6.07,1.15-.25,1.38-.81l8.93-22.32c.59-1.46,1.78-2.34,3.2-2.34h3.83c1.42,0,2.61.87,3.2,2.34l8.93,22.32h0c.23.56.78.88,1.38.81.6-.07,1.06-.52,1.15-1.11l3.5-24.35h3.88l-3.62,25.25c-.28,1.94-1.73,3.34-3.47,3.34h-3.19c-1.42,0-2.61-.87-3.2-2.34l-8.67-21.68c-.29-.73-.92-1.19-1.63-1.19h-.35c-.71,0-1.34.46-1.63,1.19l-8.67,21.68c-.58,1.46-1.78,2.34-3.2,2.34h-3.19c-1.74,0-3.19-1.4-3.47-3.34l-3.63-25.25Z"/>
        <path class="cls-6" d="m212.54,164.98c3.88,0,7.06,3.6,7.06,8v12.6c0,4.4-3.18,8-7.06,8h-23.28c-3.88,0-7.06-3.6-7.06-8v-12.6c0-4.4,3.18-8,7.06-8h23.28Zm-7.81,24.76h7.81c.26,0,.5-.04.73-.11,1.6-.48,2.49-2.49,2.49-4.06v-.38s0-.09,0-.13v-11.57s0-.09,0-.13v-.38c0-1.57-.89-3.58-2.49-4.06-.23-.07-.47-.11-.73-.11h-23.28c-.26,0-.5.04-.73.11-1.6.48-2.49,2.49-2.49,4.06v.38s0,.09,0,.13v11.57s0,.09,0,.13v.38c0,1.57.89,3.58,2.49,4.06.23.07.47.11.73.11h15.47Z"/>
        <path class="cls-6" d="m264.6,175.99v-3.01c0-1.79-1.17-4.16-3.22-4.16h-24.59v24.76h-3.83v-28.59h28.42c3.88,0,7.06,3.6,7.06,8v3.01c0,4.17-2.86,7.63-6.47,7.97l6.93,9.62h-4.73l-6.91-9.59h-13v-3.83h17.11c2.06,0,3.22-2.37,3.22-4.16Z"/>
        <path class="cls-6" d="m315.8,193.58h-26.55c-1.1,0-2.18-.31-3.16-.88-.23-.13-.45-.28-.66-.44-1.98-1.48-3.19-3.98-3.19-6.68v-20.6h3.83v20.6c0,1.35.55,2.79,1.65,3.61.1.07.19.14.3.2.38.22.79.36,1.23.36h26.55v3.83Z"/>
        <path class="cls-6" d="m332.97,164.98h25.55c3.88,0,7.06,3.6,7.06,8v12.6c0,4.4-3.18,8-7.06,8h-29.38v-28.59h3.83Zm25.55,24.76c.26,0,.5-.04.73-.11,1.6-.48,2.49-2.49,2.49-4.06v-.38s0-.09,0-.14v-11.57s0-.09,0-.14v-.38c0-1.57-.89-3.58-2.49-4.06-.23-.07-.47-.11-.73-.11h-25.55v20.93h25.55Z"/>
        <path class="cls-6" d="m390.86,164.98h3.88l3.5,24.35c.09.59.55,1.04,1.15,1.11.6.07,1.15-.25,1.38-.81l8.93-22.32c.59-1.46,1.78-2.34,3.2-2.34h3.83c1.42,0,2.61.87,3.2,2.34l8.93,22.32h0c.23.56.78.88,1.38.81.6-.07,1.06-.52,1.15-1.11l3.5-24.35h3.88l-3.63,25.25c-.28,1.94-1.73,3.34-3.47,3.34h-3.19c-1.42,0-2.61-.87-3.2-2.34l-8.67-21.68c-.29-.73-.92-1.19-1.63-1.19h-.35c-.71,0-1.34.46-1.63,1.19l-8.67,21.68c-.58,1.46-1.78,2.34-3.2,2.34h-3.19c-1.74,0-3.19-1.4-3.47-3.34l-3.63-25.25Z"/>
        <path class="cls-6" d="m455.93,164.98v28.59h-3.83v-28.59h3.83Z"/>
        <path class="cls-6" d="m473.09,164.98h25.55c3.88,0,7.06,3.6,7.06,8v12.6c0,4.4-3.18,8-7.06,8h-29.38v-28.59h3.83Zm25.55,24.76c.26,0,.5-.04.73-.11,1.6-.48,2.49-2.49,2.49-4.06v-.38s0-.09,0-.14v-11.57s0-.09,0-.14v-.38c0-1.57-.89-3.58-2.49-4.06-.23-.07-.47-.11-.73-.11h-25.55v20.93h25.55Z"/>
        <path class="cls-6" d="m519.06,172.98c0-4.4,3.18-8,7.06-8h28.42v3.83h-28.42c-.26,0-.5.04-.73.11-1.6.48-2.49,2.49-2.49,4.06v.38s0,.09,0,.14v11.57s0,.09,0,.14v.38c0,1.57.89,3.58,2.49,4.06.23.07.47.11.73.11h28.42v3.83h-28.42c-3.88,0-7.06-3.6-7.06-8v-12.6Zm35.48,8.22v-3.83h-24.17v3.83h24.17Z"/>
      </g>
      <g>
        <path class="cls-8" d="m333.47.47l-60.91,111.93h-19.64L191.8.47h21.43l50,91.94L313.63.47h19.84Z"/>
        <polygon class="cls-6" points="406.67 112.15 356.27 20.2 306.27 112.15 284.84 112.15 345.95 .22 365.6 .22 415.88 92.61 422.44 80.72 466.69 0 486.53 0 431.05 101.95 425.5 112.15 406.67 112.15"/>
      </g>
      <g>
        <polygon class="cls-8" points="196.07 31.89 205.76 49.38 53.14 49.38 34.13 31.89 196.07 31.89"/>
        <polygon class="cls-8" points="86.95 80.49 67.95 63 213.31 63 223 80.49 86.95 80.49"/>
        <polygon class="cls-8" points="19.32 18.26 0 .47 178.66 .47 188.51 18.26 19.32 18.26"/>
        <polygon class="cls-8" points="230.56 94.12 240.47 112.02 121.21 112.02 101.76 94.12 230.56 94.12"/>
      </g>
      <g>
        <polygon class="cls-6" points="480.56 31.89 470.87 49.38 623.49 49.38 642.49 31.89 480.56 31.89"/>
        <polygon class="cls-6" points="589.67 80.49 608.68 63 463.32 63 453.62 80.49 589.67 80.49"/>
        <polygon class="cls-6" points="657.3 18.26 676.63 .47 497.97 .47 488.11 18.26 657.3 18.26"/>
        <polygon class="cls-6" points="446.07 94.12 436.15 112.02 555.42 112.02 574.86 94.12 446.07 94.12"/>
      </g>
      <text class="cls-1" transform="translate(219.59 231.15)"><tspan class="cls-5" x="0" y="0">T</tspan><tspan class="cls-3" x="12.97" y="0">ou</tspan><tspan class="cls-9" x="45.45" y="0">r</tspan><tspan class="cls-4" x="55.42" y="0">s &amp; </tspan><tspan class="cls-2" x="97.45" y="0">C</tspan><tspan x="114.85" y="0">onsu</tspan><tspan class="cls-7" x="176.42" y="0">l</tspan><tspan x="183.2" y="0">tants</tspan></text>
    </g>
  </g>
</svg>