<?xml version="1.0" encoding="UTF-8"?>
<svg id="Layer_2" data-name="Layer 2" xmlns="http://www.w3.org/2000/svg" viewBox="0 0 137.92 126.47">
  <defs>
    <style>
      .cls-1 {
        fill: #29abe2;
      }
    </style>
  </defs>
  <g id="Layer_1-2" data-name="Layer 1">
    <g>
      <path class="cls-1" d="m11.13,97.79c1.67,0,3.35.02,5.02,0,4.45-.05,8.49,1.31,12.14,3.75,2.08,1.39,4.09,2.92,5.95,4.58,6.88,6.14,14.69,10.61,23.52,13.26,1.13.34,2.34.55,3.51.55,1.7-.01,2.72-.96,3.04-2.49.37-1.73-.23-3.16-1.75-3.89-.74-.36-1.58-.54-2.38-.76-9.45-2.62-17.57-7.45-24.04-14.83-4.78-5.45-7.79-11.76-7.57-19.17.15-5.31,2.55-9.67,6.92-12.72,7.48-5.23,15.23-5.79,23.16-.92.61.37,1.24.74,1.92.95,1.55.48,3.03-.22,3.93-1.73.68-1.15.54-2.46-.66-3.55-.96-.87-2.11-1.55-3.24-2.22-7.42-4.44-15.1-4.83-22.98-1.36-3.86,1.7-7.42,3.84-10.2,7.11-.6.71-1.39,1.34-2.21,1.77-1.01.52-2.12.42-3-.4-.9-.83-.93-1.89-.54-2.97.16-.44.42-.86.73-1.22,6.32-7.43,14.14-11.88,24.1-12.36,6.84-.33,13.05,1.47,18.66,5.17,2.34,1.54,4,1.65,6.38-.01,11.55-8.09,28.91-6.72,39.56,3.82,1.18,1.17,2.37,2.37,3.34,3.72,1.14,1.57,1.05,3.04.07,3.91-1.12,1-3.31.88-4.6-.28-.35-.32-.62-.72-.93-1.09-7.23-8.45-20.63-12.91-32.43-6.1-1.32.76-2.54,1.79-3.63,2.87-1.2,1.19-1.18,2.2-.3,3.52.85,1.28,2.01,1.87,3.35,1.45.9-.28,1.77-.74,2.54-1.28,4.67-3.22,9.97-3.56,15.17-2.5,10.52,2.16,15.98,13.11,14.04,21.29-2.1,8.84-7,15.57-14.15,20.84-5.03,3.7-10.51,6.59-16.57,8.28-1.13.32-2.24.83-3.25,1.44-1.12.67-1.52,1.81-1.32,3.1.2,1.35,1.11,2.18,2.35,2.39,1.14.19,2.43.24,3.51-.09,3.08-.94,6.21-1.84,9.09-3.22,5.84-2.79,11.26-6.29,15.8-10.98,2.81-2.9,6.2-4.9,9.91-6.26,2.09-.77,4.41-1.15,6.64-1.24,4.53-.2,9.08-.09,13.62-.09.71,0,1.44.01,2.14.15,1.5.29,2.39,1.31,2.45,2.66.06,1.46-.93,2.64-2.57,2.93-.82.14-1.67.12-2.5.13-2.87.01-5.74.12-8.6-.02-6.76-.33-12.34,2.33-17.27,6.62-6.82,5.93-14.28,10.78-22.78,13.95-1.56.58-3.2.98-4.77,1.53-2.84,1.01-5.61,1.13-8.28-.49-1.49-.91-2.93-.75-4.39.1-2.44,1.42-4.95,1.29-7.61.54-10.89-3.09-20.48-8.41-28.65-16.29-4.13-3.98-9.14-5.97-14.91-5.95-3.47,0-6.93.02-10.4,0-.95,0-1.93-.02-2.85-.22-1.45-.33-2.39-1.54-2.3-2.8.09-1.36.94-2.19,2.17-2.55.79-.23,1.65-.26,2.48-.28,2.15-.04,4.3-.01,6.45-.01v.02Zm24.58-16.89c.05.44,0,1.68.33,2.8,1.67,5.6,4.5,10.5,9.01,14.33,5.16,4.39,10.94,7.62,17.54,9.36,2.06.54,4.02,2.05,6.02,2.04,2.14-.02,4.23-1.42,6.39-2.04,7.98-2.27,14.99-6.05,20.62-12.29,3.04-3.36,5.16-7.07,6.27-11.46,1.43-5.66-.21-10.23-4.85-13.51-4.37-3.09-9.19-3.84-14.17-1.17-.53.28-1.03.61-1.54.91-2.94,1.77-6.12,2.21-9.29,1.01-2.44-.93-4.6-.83-6.86.34-2.2,1.14-4.41.77-6.54-.3-.85-.43-1.67-.92-2.47-1.45-4.3-2.83-8.72-2.82-13.27-.65-4.79,2.27-7.3,5.96-7.21,12.07Z"/>
      <path class="cls-1" d="m46.51,37.64c5.94-.21,11.3,1.73,16.49,4.23,1.05.5,2.06,1.26,2.81,2.14,1.3,1.5.49,3.36-1.48,3.71-1.47.26-2.8-.15-4.13-.8-4.45-2.18-9.18-3.36-14.13-3.41-7.78-.07-14.36,3.13-20.13,8.02-2.15,1.82-3.78,4.24-5.64,6.4-.62.72-1.11,1.58-1.84,2.15-1.02.81-2.23.76-3.35.07-1.04-.65-1.42-1.8-.89-3.14.44-1.1.97-2.2,1.66-3.15,7.54-10.42,17.69-15.95,30.62-16.23Z"/>
      <path class="cls-1" d="m90.82,37.57c10.6.35,19.11,3.46,25.96,10.49,1.82,1.87,3.48,3.9,5.13,5.93.59.73,1.02,1.61,1.39,2.48.69,1.6.45,2.69-.62,3.52-1.25.96-3.06.89-4.24-.27-.58-.58-1.03-1.3-1.49-1.99-5.15-7.77-12.31-12.47-21.51-13.98-3.31-.54-6.65-.45-9.94.36-1.04.26-2.09.53-3.15.58-1.26.06-2.31-.83-2.65-2.01-.33-1.17,0-2.21.99-2.82.99-.61,2.11-1.16,3.24-1.37,2.57-.47,5.17-.7,6.89-.92Z"/>
      <path class="cls-1" d="m85.75,28.15c-1.07-.7-2.12-1.1-2.73-1.86-.78-.98-.13-2.05.54-2.92.43-.56.94-1.08,1.45-1.58,3.8-3.8,7.6-7.6,11.41-11.38.59-.59,1.19-1.19,1.86-1.67,1.51-1.06,2.67-.92,3.8.35,1.14,1.27,1.22,2.48.23,3.88-.2.29-.45.55-.71.81-4.14,4.13-8.25,8.3-12.46,12.36-.88.85-2.16,1.29-3.41,2.02Z"/>
      <path class="cls-1" d="m72.31,11.03c0,1.9.02,3.79,0,5.69,0,.71-.02,1.44-.19,2.12-.37,1.51-1.68,2.61-2.99,2.63-1.31.02-2.7-1.04-3.08-2.52-.2-.79-.23-1.64-.23-2.47-.02-3.91-.01-7.82-.01-11.73,0-.36,0-.71.02-1.07.17-2.25,1.33-3.63,3.07-3.68,1.56-.04,3.18,1.51,3.32,3.57.17,2.48.04,4.97.04,7.46.02,0,.05,0,.07,0Z"/>
      <path class="cls-1" d="m8.52,74.97c-1.55,0-3.1.06-4.64-.02-.81-.04-1.69-.18-2.39-.55-1.95-1.03-2-3.53-.06-4.58.8-.43,1.81-.62,2.73-.64,3.09-.08,6.19-.03,9.28-.02.47,0,.96.03,1.42.12,1.65.34,2.61,1.47,2.54,2.94-.07,1.33-.96,2.41-2.46,2.63-1.29.19-2.61.13-3.92.16-.83.02-1.67,0-2.5,0v-.04Z"/>
      <path class="cls-1" d="m129,74.96c-1.43,0-2.86.05-4.29-.02-.82-.04-1.68-.13-2.44-.41-1.07-.4-1.76-1.23-1.78-2.44-.03-1.22.66-2.03,1.72-2.47.64-.27,1.38-.43,2.08-.44,3.34-.04,6.68-.09,10.02.01,2.25.07,3.19.94,3.23,2.54.04,1.74-1.1,2.89-3.16,3.19-.24.03-.48.05-.71.05-1.55,0-3.1,0-4.65,0h0Z"/>
      <path class="cls-1" d="m45.93,15.57c.42.22,1.26.47,1.84,1.01,1.99,1.86,3.97,3.75,5.81,5.77,1.59,1.75,1.67,3.28.54,4.42-1.13,1.14-2.85,1.24-4.5-.2-2.23-1.94-4.28-4.1-6.32-6.24-.87-.92-1.09-2.1-.38-3.28.59-1,1.47-1.52,3.02-1.47Z"/>
      <path class="cls-1" d="m74.21,42.77c1.65.03,3.01,1.35,2.97,2.89-.03,1.45-1.26,2.64-2.76,2.67-1.66.04-3.13-1.22-3.17-2.7-.04-1.57,1.32-2.9,2.95-2.87Z"/>
      <path class="cls-1" d="m37.44,13.33c-1.6-.06-2.76-1.27-2.63-2.72.14-1.52,1.66-2.87,3.15-2.8,1.46.06,2.68,1.37,2.62,2.81-.07,1.56-1.47,2.77-3.15,2.71Z"/>
    </g>
  </g>
</svg>