<?xml version="1.0" encoding="UTF-8"?>
<svg id="Layer_2" data-name="Layer 2" xmlns="http://www.w3.org/2000/svg" viewBox="0 0 119.42 120.71">
  <defs>
    <style>
      .cls-1 {
        fill: #29abe2;
      }
    </style>
  </defs>
  <g id="Layer_1-2" data-name="Layer 1">
    <path class="cls-1" d="m58.93,120.71c-.15-.3-.39-.84-.71-1.34-11.53-17.84-23.08-35.67-34.6-53.53-7.51-11.63-14.94-23.32-22.47-34.93-1.79-2.76-1.31-3.26.16-5.36,5.07-7.24,10.07-14.52,14.91-21.91C17.91,1.07,19.87-.01,22.98,0c24.63.1,49.25.08,73.88.02,2.54,0,4.19.82,5.61,2.96,4.89,7.35,9.97,14.58,14.97,21.86.47.69.91,1.4,1.41,2.07.83,1.12.72,2.14-.05,3.28-2.02,2.95-4,5.94-5.94,8.94-8.42,13.03-16.8,26.09-25.22,39.12-8.49,13.13-17,26.24-25.53,39.34-.69,1.06-1.13,2.41-3.17,3.1Zm.38-18.73c.48-1.03.76-1.42.85-1.85,4.99-22.32,9.97-44.65,14.93-66.98.1-.43-.05-.92-.09-1.44-.5-.22-.91-.57-1.34-.58-9.31-.06-18.62-.09-27.93-.08-.55,0-1.1.31-1.79.51,0,.68-.11,1.28.02,1.83,5.06,22.65,10.14,45.29,15.36,68.58Zm51.39-69.94c-1.62-1.38-2.99-1.04-4.26-1.05-6.93-.04-13.86-.02-20.79-.02-.6,0-1.2-.02-1.79.02-2.2.16-2.58.47-3.22,2.63-.17.57-.3,1.15-.43,1.74-4.36,19.55-8.73,39.09-13.09,58.64-.45,2.04-.89,4.08-1.42,6.52.73-.44,1.12-.54,1.28-.79,14.55-22.51,29.09-45.04,43.71-67.7Zm-57.53,68.19c-.18-.87-.29-1.43-.41-1.98-1.27-5.7-2.52-11.39-3.8-17.09-3.52-15.68-7.05-31.37-10.6-47.05-.66-2.91-.85-3.1-3.8-3.12-7.88-.05-15.75-.03-23.63,0-.75,0-1.51.33-2.31.51,1.56,3.63,42.23,66.4,44.55,68.71Zm.71-95c-3.62-.01-6.58-.02-9.54-.03-2.98,0-5.96-.09-8.94.02-2.9.11-5.87-.52-9.21.6,4.5,6.08,8.95,11.7,13.6,17.09.65-.28,1.09-.33,1.28-.57,3.99-5.04,7.96-10.09,11.91-15.16.27-.34.38-.81.91-1.96Zm12.34.6c1.35,3.05,10.84,15.18,13.15,16.81,2.27-1.05,3.11-3.45,4.64-5.2,1.56-1.79,3.12-3.62,4.38-5.62,1.22-1.94,3.54-3.17,3.99-5.8-.53-.26-.93-.65-1.34-.65-7.86-.05-15.71-.07-23.57-.05-.41,0-.83.33-1.24.51Zm-6.44,2.42c-2.67,2.12-11.83,14.1-12.98,16.91.88.92,1.98.54,3.01.44,6.65-.62,13.29-.64,19.93,0,1.03.1,2.13.39,2.93-.63-1.13-2.43-10.18-14.2-12.88-16.72Zm26.24,17.37c1.32,0,2.25.04,3.18,0,2.14-.11,4.28-.41,6.42-.38,4.05.06,8.1.31,12.15.45.91.03,1.96.32,2.45-.86-1.59-3.7-9.15-14.53-11.34-16.24-2.77,2.21-11.58,13.7-12.86,17.03Zm-52.61-.49c-2.57-4.49-11.13-15.23-13.45-16.81-3.82,5.53-7.63,11.06-11.6,16.82,3.11,1.25,5.78-.2,8.45.02,2.73.22,5.51.21,8.24,0,2.69-.2,5.37,1.34,8.37-.02Z"/>
  </g>
</svg>