<?xml version="1.0" encoding="UTF-8"?>
<svg id="Layer_2" data-name="Layer 2" xmlns="http://www.w3.org/2000/svg" viewBox="0 0 114.13 107.27">
  <defs>
    <style>
      .cls-1 {
        fill: #29abe2;
      }
    </style>
  </defs>
  <g id="Layer_1-2" data-name="Layer 1">
    <path class="cls-1" d="m19.01,102.83c.53-3.25,1.04-6.54,1.59-9.83,1.26-7.52,2.49-15.06,3.86-22.56.39-2.15-.29-3.64-1.76-5.09-6.54-6.46-13.03-12.98-19.54-19.48-.76-.76-1.56-1.5-2.21-2.35-1.62-2.12-1.17-4.14,1.27-5.23,1.29-.57,2.73-.87,4.14-1.1,9.43-1.55,18.86-3.08,28.3-4.53,2.83-.43,4.72-1.69,6.01-4.38,3.81-7.97,7.84-15.83,11.82-23.71.59-1.16,1.23-2.36,2.11-3.28,1.74-1.81,3.64-1.68,5.19.3.8,1.02,1.38,2.23,1.97,3.39,3.87,7.67,7.83,15.31,11.5,23.07,1.4,2.97,3.46,4.21,6.57,4.67,7.8,1.14,15.56,2.52,23.33,3.8,2.24.37,4.48.72,6.71,1.11.7.12,1.43.25,2.06.56,2.23,1.06,2.81,2.96,1.45,4.99-.65.98-1.53,1.82-2.37,2.67-6.34,6.33-12.62,12.72-19.08,18.92-2.13,2.05-2.7,4.01-2.13,6.96,1.9,9.83,3.44,19.73,5.11,29.6.12.7.14,1.43.14,2.14-.03,3.13-1.49,4.29-4.59,3.63-.69-.15-1.38-.41-2-.75-7.96-4.36-15.9-8.76-23.86-13.12-1.88-1.03-3.82-1.97-5.71-3-1.27-.69-2.49-.7-3.74.01-1.56.88-3.12,1.77-4.69,2.62-6.51,3.53-13.03,7.04-19.54,10.56-1.26.68-2.48,1.44-3.74,2.11-.95.51-1.89,1.06-2.9,1.39-3.33,1.07-5.43-.57-5.27-4.08Zm-8.07-59.44c1.27,1.42,2.01,2.32,2.83,3.14,4.97,4.98,9.85,10.07,14.99,14.88,2.88,2.69,3.59,5.58,2.85,9.32-1.44,7.36-2.63,14.77-3.89,22.17-.23,1.37-.34,2.75-.56,4.51,1.24-.49,2.14-.75,2.94-1.18,3.36-1.81,6.69-3.69,10.04-5.51,4.72-2.56,9.46-5.08,14.17-7.66,1.94-1.07,3.79-1.16,5.77-.05,5.2,2.93,10.42,5.81,15.66,8.67,3.53,1.92,7.12,3.76,11.08,5.85-.07-1.03-.06-1.59-.15-2.13-1.44-8.69-2.87-17.39-4.36-26.08-.47-2.76-.08-5.02,2.13-7.11,5.29-5,10.35-10.24,15.51-15.36.99-.99,2.04-1.93,3.34-3.15-.95-.37-1.54-.72-2.17-.83-1.29-.22-2.61-.27-3.9-.48-7.53-1.26-15.03-2.66-22.58-3.78-2.62-.39-4.49-1.41-5.67-3.73-.43-.85-.93-1.67-1.35-2.52-3.03-6.08-6.04-12.18-9.09-18.25-.33-.66-.91-1.2-1.64-2.14-.81,1.42-1.43,2.41-1.95,3.46-3.11,6.18-6.25,12.34-9.25,18.57-1.36,2.82-3.13,4.75-6.52,4.62-.7-.03-1.4.25-2.11.37-5.06.82-10.13,1.62-15.18,2.47-3.38.57-6.75,1.2-10.94,1.94Z"/>
  </g>
</svg>