<?xml version="1.0" encoding="UTF-8"?>
<svg id="Layer_2" data-name="Layer 2" xmlns="http://www.w3.org/2000/svg" viewBox="0 0 127.03 126.73">
  <defs>
    <style>
      .cls-1 {
        fill: #29abe2;
      }
    </style>
  </defs>
  <g id="Layer_1-2" data-name="Layer 1">
    <g>
      <path class="cls-1" d="m86.93,0c5.41.3,10.78.62,15.87,2.57,11.55,4.43,19.42,12.44,22.77,24.39,3.67,13.06.33,24.53-9.06,34.17-2.27,2.34-3.41,4.67-3.14,7.89.21,2.49.07,5,.04,7.51,0,.83-.03,1.69-.27,2.47-.6,1.94-2.27,2.45-3.9,1.21-.75-.57-1.4-1.29-2.08-1.96-1.79-1.76-3.55-3.53-5.34-5.28-1.27-1.24-2.68-1.82-4.54-1.38-7.83,1.85-15.68,1.48-23.38-.56-6.95-1.84-13-5.4-17.52-11.12-1.91-2.42-3.82-4.93-5.16-7.68-6.71-13.7-4.88-26.56,4.42-38.45,5.79-7.4,13.54-11.49,22.79-12.84,2.82-.41,5.68-.63,8.51-.94Zm20.86,70.63c.16-.77.38-1.43.42-2.09.07-1.43.09-2.86.03-4.29-.07-1.81.62-3.08,2.03-4.29,10.24-8.72,13.95-22.02,8.79-34.99-3.56-8.95-9.97-15.21-19.32-17.75-7.03-1.91-14.27-2.45-21.64-1.19-16.55,2.83-29.03,18.95-25.83,35.35,2.6,13.34,13.65,24.38,28.56,25.35,5.7.37,11.5.55,17.12-.83,2.72-.67,4.58.1,6.31,2.09.89,1.02,1.73,2.27,3.52,2.63Z"/>
      <path class="cls-1" d="m41.3,117.29c.16-1.53.23-2.55.38-3.56.26-1.7.76-2.27,2.49-2.53,1.29-.2,2.61-.28,3.92-.27,6.45.04,12.9.23,19.36.15,3.09-.03,6.19-.44,9.06-1.84,3.5-1.71,5.41-4.45,6.07-8.27.91-5.23.39-10.47.56-15.71.04-1.19-.02-2.4.16-3.57.21-1.4,1.16-2.31,2.26-2.45,1.24-.15,2.52.67,2.98,2.08.26.78.37,1.63.37,2.46.03,4.77.12,9.55-.03,14.32-.24,7.61-3.91,13.07-10.76,16.43-1.78.87-3.63,1.09-5.57,1.09-6.81-.01-13.63,0-20.44,0q-4.7,0-4.73,4.82c-.01,1.31.07,2.65-.16,3.92-.42,2.39-2.36,3.12-4.19,1.48-2.48-2.23-4.9-4.56-7.13-7.05-2.18-2.43-4.7-3.42-7.93-3.22-3.1.19-6.21.05-9.32.04-10.7-.06-18.28-7.39-18.59-18.08-.12-4.29-.04-8.59-.04-12.88,0-7.28-.02-14.56.03-21.83.01-1.66.24-3.32.41-4.98.83-7.84,8.08-13.98,15.88-14.58,5.59-.43,11.21-.59,16.82-.66,2.97-.03,5.95.36,8.92.62.57.05,1.18.26,1.68.55,1.01.59,1.53,1.51,1.29,2.71-.22,1.07-1,1.62-2.03,1.73-.95.1-1.91.11-2.86.11-5.98,0-11.95-.06-17.93.04-2.25.04-4.54.28-6.75.73-5.84,1.2-9.64,5.74-9.67,11.66-.08,12.65.06,25.29-.07,37.94-.04,4.33,3.49,10.28,9.87,11.67,2.09.45,4.25.66,6.39.74,3.34.12,6.69.09,10.04.03,1.93-.03,3.45.6,4.77,2.01,1.27,1.36,2.53,2.78,4.49,4.16Z"/>
      <path class="cls-1" d="m42.58,81.89c-7.4,0-14.8,0-22.2,0-1.07,0-2.16.02-3.22-.12-2.07-.28-3.29-1.3-3.36-2.65-.07-1.45,1.27-2.62,3.5-2.9,1.06-.13,2.14-.1,3.22-.1,11.34-.01,22.68-.01,34.01-.02,3.94,0,7.88-.03,11.82.05,1.05.02,2.15.2,3.12.58,1.08.42,1.56,1.45,1.52,2.61-.04,1.25-.8,2.01-1.95,2.23-1.16.22-2.36.31-3.55.32-7.64.03-15.28.01-22.91.01Z"/>
      <path class="cls-1" d="m37.9,95.57c-6.32,0-12.64.02-18.96-.02-1.18,0-2.45-.02-3.49-.48-.71-.31-1.4-1.35-1.5-2.15-.08-.6.69-1.42,1.26-1.96.39-.37,1.07-.53,1.64-.62,1.53-.23,3.07-.52,4.6-.53,11.33-.05,22.65-.03,33.98-.02.95,0,1.94,0,2.83.26.88.26,1.8.7,2.45,1.33,1.37,1.32.81,3.46-1.03,3.94-1.02.27-2.12.23-3.19.24-6.2.02-12.4,0-18.6,0Z"/>
      <path class="cls-1" d="m34.15,68.32c-5.13,0-10.26.04-15.38-.03-1.29-.02-2.66-.14-3.83-.61-1.82-.73-2.03-2.91-.39-3.99.94-.62,2.18-.97,3.32-1.09,1.77-.19,3.57-.08,5.36-.08,8.47,0,16.93,0,25.4,0,1.19,0,2.4-.01,3.56.19,1.73.31,2.75,1.49,2.69,2.85-.06,1.42-1.11,2.45-2.85,2.66-.94.12-1.9.09-2.86.09-5.01,0-10.02,0-15.02,0h0Z"/>
      <path class="cls-1" d="m71,92.85c.07,1.46-.87,2.52-2.33,2.61-1.57.1-3.02-1-3.1-2.33-.08-1.33,1.28-2.6,2.83-2.64,1.45-.03,2.53.95,2.61,2.36Z"/>
      <path class="cls-1" d="m85.34,41.21c.07-.95.06-1.91.23-2.84.45-2.42,1.91-3.99,4.19-4.95,2.27-.95,3.67-2.58,3.5-5.24-.16-2.51-1.39-4.24-3.56-4.79-2.04-.52-4.34.44-5.5,2.43-.47.81-.68,1.77-1.02,2.65-.74,1.93-1.93,2.75-3.42,2.36-1.47-.38-2.43-1.76-2.2-3.64.49-4,2.83-6.78,6.31-8.55,5.4-2.75,10.67-.17,13.61,4.35,2.82,4.32,1.98,10.28-2.52,13.39-2.92,2.02-4.23,4.06-3.91,7.53.17,1.81-.76,2.64-2.12,2.79-1.38.15-2.46-.52-3.04-1.97-.22-.54-.35-1.14-.42-1.73-.07-.59-.02-1.19-.02-1.78-.04,0-.08,0-.11,0Z"/>
      <path class="cls-1" d="m91.08,53.61c.04,1.51-1.14,2.93-2.44,2.95-1.33.02-3.03-1.67-3-2.98.02-1.27,1.46-2.42,3-2.41,1.44.01,2.42.98,2.45,2.43Z"/>
    </g>
  </g>
</svg>