<?xml version="1.0" encoding="utf-8"?>
<!-- Generator: Adobe Illustrator 27.3.1, SVG Export Plug-In . SVG Version: 6.00 Build 0)  -->
<svg version="1.1" id="Layer_2_00000150782160744572010230000008560106029070022580_"
	 xmlns="http://www.w3.org/2000/svg" xmlns:xlink="http://www.w3.org/1999/xlink" x="0px" y="0px" viewBox="0 0 676.6 237.4"
	 style="enable-background:new 0 0 676.6 237.4;" xml:space="preserve">
<style type="text/css">
	.st0{fill:#FFFFFF;}
	.st1{fill:#FFFFFF;stroke:#FFFFFF;stroke-miterlimit:10;}
	.st2{fill:#FFFFFF;stroke:#FFFFFF;stroke-width:5;stroke-miterlimit:10;}
</style>
<g id="Tours">
	<g>
		<g>
			<path class="st0" d="M333.5,5.5l-60.1,110.4h-19.4L193.8,5.5h21.1l49.3,90.7L314,5.5H333.5z"/>
			<polygon class="st0" points="405.7,115.6 356,24.9 306.7,115.6 285.6,115.6 345.8,5.2 365.2,5.2 414.8,96.4 421.3,84.6 464.9,5 
				484.5,5 429.8,105.6 424.3,115.6 			"/>
		</g>
		<g>
			<polygon class="st0" points="198,36.5 207.6,53.7 57.1,53.7 38.3,36.5 			"/>
			<polygon class="st0" points="90.4,84.4 71.7,67.2 215,67.2 224.6,84.4 			"/>
			<polygon class="st0" points="23.7,23 4.6,5.5 180.9,5.5 190.6,23 			"/>
			<polygon class="st0" points="232,97.9 241.8,115.5 124.2,115.5 105,97.9 			"/>
		</g>
		<g>
			<polygon class="st0" points="478.6,36.5 469.1,53.7 619.6,53.7 638.3,36.5 			"/>
			<polygon class="st0" points="586.2,84.4 605,67.2 461.6,67.2 452,84.4 			"/>
			<polygon class="st0" points="652.9,23 672,5.5 495.8,5.5 486.1,23 			"/>
			<polygon class="st0" points="444.6,97.9 434.8,115.5 552.4,115.5 571.6,97.9 			"/>
		</g>
	</g>
</g>
<g>
	<path class="st1" d="M194.7,232v-16.9H188v-3.9h18.2v3.9h-6.7V232H194.7z"/>
	<path class="st1" d="M214.4,232.3c-1.7,0-3.2-0.4-4.5-1.1s-2.4-1.7-3.1-2.9c-0.8-1.2-1.1-2.7-1.1-4.3c0-1.6,0.4-3,1.1-4.3
		c0.8-1.2,1.8-2.2,3.1-2.9s2.8-1.1,4.5-1.1c1.7,0,3.2,0.4,4.6,1.1s2.4,1.7,3.1,2.9c0.8,1.2,1.1,2.7,1.1,4.3s-0.4,3-1.1,4.3
		c-0.8,1.2-1.8,2.2-3.1,2.9S216.1,232.3,214.4,232.3z M214.4,228.4c0.8,0,1.5-0.2,2.1-0.5c0.6-0.3,1.1-0.9,1.5-1.5s0.6-1.5,0.6-2.4
		c0-0.9-0.2-1.7-0.6-2.4c-0.4-0.7-0.9-1.2-1.5-1.5c-0.6-0.3-1.3-0.5-2.1-0.5s-1.5,0.2-2.1,0.5c-0.6,0.3-1.1,0.9-1.5,1.5
		c-0.4,0.7-0.6,1.5-0.6,2.4c0,0.9,0.2,1.7,0.6,2.4c0.4,0.7,0.9,1.2,1.5,1.5C213,228.3,213.7,228.4,214.4,228.4z"/>
	<path class="st1" d="M233.1,232.3c-1.4,0-2.5-0.3-3.6-0.8c-1-0.5-1.8-1.3-2.4-2.4c-0.6-1.1-0.9-2.4-0.9-4.1V216h4.7v8.4
		c0,1.4,0.3,2.3,0.9,3c0.6,0.6,1.4,0.9,2.4,0.9c0.7,0,1.4-0.2,1.9-0.5c0.6-0.3,1-0.8,1.3-1.4s0.5-1.4,0.5-2.4v-8h4.6V232h-4.4v-4.4
		l0.8,1.3c-0.6,1.1-1.4,2-2.4,2.5S234.4,232.3,233.1,232.3z"/>
	<path class="st1" d="M246.9,232V216h4.4v4.6l-0.6-1.3c0.5-1.1,1.2-2,2.3-2.6c1.1-0.6,2.3-0.9,3.8-0.9v4.3c-0.2,0-0.4-0.1-0.5-0.1
		c-0.2,0-0.3,0-0.5,0c-1.3,0-2.4,0.4-3.1,1.1c-0.8,0.7-1.2,1.9-1.2,3.4v7.6H246.9z"/>
	<path class="st1" d="M265.1,232.3c-1.4,0-2.7-0.2-3.9-0.5c-1.3-0.3-2.3-0.7-3-1.2l1.5-3.3c0.8,0.4,1.6,0.8,2.6,1.1
		c1,0.3,2,0.4,3,0.4c1.1,0,1.8-0.1,2.3-0.4c0.4-0.3,0.7-0.6,0.7-1.1c0-0.4-0.2-0.7-0.5-0.9c-0.3-0.2-0.8-0.3-1.4-0.4
		c-0.6-0.1-1.2-0.2-1.9-0.3c-0.7-0.1-1.4-0.2-2.1-0.4c-0.7-0.2-1.3-0.4-1.9-0.8c-0.6-0.3-1.1-0.8-1.4-1.4c-0.3-0.6-0.5-1.3-0.5-2.2
		c0-1,0.3-1.9,0.9-2.7c0.6-0.8,1.4-1.4,2.5-1.8c1.1-0.4,2.4-0.7,4-0.7c1.1,0,2.2,0.1,3.4,0.4c1.1,0.2,2.1,0.6,2.8,1l-1.6,3.3
		c-0.8-0.4-1.5-0.7-2.3-0.9c-0.8-0.2-1.5-0.3-2.3-0.3c-1.1,0-1.8,0.1-2.3,0.4c-0.5,0.3-0.7,0.6-0.7,1.1c0,0.4,0.2,0.7,0.5,0.9
		c0.4,0.2,0.8,0.4,1.4,0.5c0.6,0.1,1.2,0.2,1.9,0.3s1.4,0.2,2.1,0.4c0.7,0.2,1.3,0.4,1.9,0.8c0.6,0.3,1.1,0.8,1.4,1.4
		c0.3,0.6,0.5,1.3,0.5,2.2c0,1-0.3,1.8-0.9,2.6s-1.5,1.4-2.6,1.8C268.1,232,266.7,232.3,265.1,232.3z"/>
	<path class="st1" d="M290.9,232.4c-1.5,0-2.9-0.2-4.1-0.7c-1.2-0.5-2.2-1.2-2.8-2c-0.7-0.9-1-1.8-1-3c0-1,0.2-2,0.7-2.8
		s1.2-1.6,2.2-2.3c1-0.7,2.3-1.4,3.8-2.1c1.1-0.5,2-1,2.6-1.4c0.6-0.4,1.1-0.8,1.3-1.1c0.3-0.4,0.4-0.7,0.4-1.1
		c0-0.5-0.2-0.9-0.5-1.2c-0.3-0.3-0.9-0.5-1.5-0.5c-0.7,0-1.3,0.2-1.7,0.5c-0.4,0.4-0.6,0.8-0.6,1.4c0,0.3,0.1,0.6,0.2,0.9
		c0.1,0.3,0.4,0.6,0.7,1c0.3,0.4,0.8,0.9,1.4,1.4l11,10.2l-2.5,3l-12.2-11.3c-0.7-0.6-1.2-1.2-1.6-1.8c-0.4-0.6-0.7-1.1-0.9-1.7
		c-0.2-0.5-0.3-1.1-0.3-1.7c0-1,0.3-1.9,0.8-2.7c0.5-0.8,1.3-1.4,2.3-1.8c1-0.4,2.1-0.6,3.4-0.6c1.2,0,2.3,0.2,3.2,0.6
		c0.9,0.4,1.6,0.9,2.1,1.7c0.5,0.7,0.8,1.6,0.8,2.6c0,0.9-0.2,1.7-0.7,2.4c-0.4,0.7-1.1,1.4-2.1,2.1c-0.9,0.6-2.1,1.3-3.6,1.9
		c-1,0.5-1.8,0.9-2.4,1.3c-0.6,0.4-1,0.9-1.3,1.3c-0.3,0.4-0.4,0.9-0.4,1.5c0,0.5,0.1,0.9,0.4,1.3s0.7,0.7,1.3,0.9
		c0.6,0.2,1.2,0.3,2,0.3c1.2,0,2.3-0.3,3.3-0.9c1-0.6,1.9-1.4,2.6-2.5c0.7-1.1,1.2-2.5,1.5-4.1l3.7,1.1c-0.4,2-1.1,3.8-2.2,5.3
		c-1.1,1.5-2.4,2.6-4,3.5C294.6,232,292.8,232.4,290.9,232.4z"/>
	<path class="st1" d="M324.5,232.4c-1.6,0-3.1-0.3-4.5-0.8c-1.4-0.5-2.6-1.3-3.6-2.3c-1-1-1.8-2.1-2.4-3.4s-0.9-2.8-0.9-4.3
		s0.3-3,0.9-4.3s1.4-2.5,2.4-3.4s2.2-1.7,3.6-2.3c1.4-0.5,2.9-0.8,4.5-0.8c1.8,0,3.5,0.3,4.9,0.9c1.5,0.6,2.7,1.5,3.7,2.8l-3.1,2.9
		c-0.7-0.8-1.5-1.4-2.4-1.8c-0.9-0.4-1.8-0.6-2.9-0.6c-1,0-1.9,0.2-2.7,0.5c-0.8,0.3-1.5,0.8-2.1,1.4c-0.6,0.6-1.1,1.3-1.4,2.1
		c-0.3,0.8-0.5,1.7-0.5,2.7s0.2,1.9,0.5,2.7c0.3,0.8,0.8,1.5,1.4,2.1c0.6,0.6,1.3,1.1,2.1,1.4c0.8,0.3,1.7,0.5,2.7,0.5
		c1,0,2-0.2,2.9-0.6c0.9-0.4,1.7-1,2.4-1.9l3.1,2.9c-1,1.2-2.2,2.1-3.7,2.8C328,232.1,326.3,232.4,324.5,232.4z"/>
	<path class="st1" d="M343.1,232.3c-1.7,0-3.2-0.4-4.5-1.1c-1.3-0.7-2.4-1.7-3.1-2.9c-0.8-1.2-1.1-2.7-1.1-4.3c0-1.6,0.4-3,1.1-4.3
		c0.8-1.2,1.8-2.2,3.1-2.9c1.3-0.7,2.8-1.1,4.5-1.1c1.7,0,3.2,0.4,4.6,1.1c1.3,0.7,2.4,1.7,3.1,2.9c0.8,1.2,1.1,2.7,1.1,4.3
		s-0.4,3-1.1,4.3c-0.8,1.2-1.8,2.2-3.1,2.9C346.3,231.9,344.8,232.3,343.1,232.3z M343.1,228.4c0.8,0,1.5-0.2,2.1-0.5
		c0.6-0.3,1.1-0.9,1.5-1.5s0.6-1.5,0.6-2.4c0-0.9-0.2-1.7-0.6-2.4c-0.4-0.7-0.9-1.2-1.5-1.5c-0.6-0.3-1.3-0.5-2.1-0.5
		c-0.8,0-1.5,0.2-2.1,0.5c-0.6,0.3-1.1,0.9-1.5,1.5c-0.4,0.7-0.6,1.5-0.6,2.4c0,0.9,0.2,1.7,0.6,2.4s0.9,1.2,1.5,1.5
		C341.7,228.3,342.3,228.4,343.1,228.4z"/>
	<path class="st1" d="M364.8,215.7c1.3,0,2.4,0.3,3.4,0.8s1.8,1.3,2.4,2.3s0.9,2.4,0.9,4v9.2h-4.7v-8.5c0-1.3-0.3-2.2-0.9-2.9
		c-0.6-0.6-1.4-0.9-2.4-0.9c-0.7,0-1.4,0.2-2,0.5c-0.6,0.3-1,0.8-1.4,1.4s-0.5,1.4-0.5,2.4v7.9H355V216h4.4v4.4l-0.8-1.3
		c0.6-1.1,1.4-1.9,2.5-2.5C362.2,216,363.4,215.7,364.8,215.7z"/>
	<path class="st1" d="M381,232.3c-1.4,0-2.7-0.2-3.9-0.5c-1.3-0.3-2.3-0.7-3-1.2l1.5-3.3c0.8,0.4,1.6,0.8,2.6,1.1c1,0.3,2,0.4,3,0.4
		c1.1,0,1.8-0.1,2.3-0.4c0.4-0.3,0.7-0.6,0.7-1.1c0-0.4-0.2-0.7-0.5-0.9c-0.3-0.2-0.8-0.3-1.4-0.4c-0.6-0.1-1.2-0.2-1.9-0.3
		c-0.7-0.1-1.4-0.2-2.1-0.4c-0.7-0.2-1.3-0.4-1.9-0.8c-0.6-0.3-1.1-0.8-1.4-1.4c-0.3-0.6-0.5-1.3-0.5-2.2c0-1,0.3-1.9,0.9-2.7
		c0.6-0.8,1.4-1.4,2.5-1.8c1.1-0.4,2.4-0.7,4-0.7c1.1,0,2.2,0.1,3.4,0.4c1.1,0.2,2.1,0.6,2.8,1l-1.6,3.3c-0.8-0.4-1.5-0.7-2.3-0.9
		c-0.8-0.2-1.5-0.3-2.3-0.3c-1.1,0-1.9,0.1-2.3,0.4c-0.5,0.3-0.7,0.6-0.7,1.1c0,0.4,0.2,0.7,0.5,0.9c0.4,0.2,0.8,0.4,1.4,0.5
		c0.6,0.1,1.2,0.2,1.9,0.3c0.7,0.1,1.4,0.2,2.1,0.4c0.7,0.2,1.3,0.4,1.9,0.8s1.1,0.8,1.4,1.4c0.3,0.6,0.5,1.3,0.5,2.2
		c0,1-0.3,1.8-0.9,2.6s-1.5,1.4-2.6,1.8C384,232,382.7,232.3,381,232.3z"/>
	<path class="st1" d="M398.3,232.3c-1.4,0-2.5-0.3-3.6-0.8c-1-0.5-1.8-1.3-2.4-2.4c-0.6-1.1-0.9-2.4-0.9-4.1V216h4.7v8.4
		c0,1.4,0.3,2.3,0.8,3c0.6,0.6,1.4,0.9,2.4,0.9c0.7,0,1.4-0.2,1.9-0.5c0.6-0.3,1-0.8,1.3-1.4s0.5-1.4,0.5-2.4v-8h4.6V232h-4.4v-4.4
		l0.8,1.3c-0.6,1.1-1.4,2-2.4,2.5C400.6,232,399.5,232.3,398.3,232.3z"/>
	<path class="st1" d="M412,232v-22.1h4.7V232H412z"/>
	<path class="st1" d="M420.2,219.9v-3.6h11.1v3.6H420.2z M428.7,232.3c-1.9,0-3.4-0.5-4.4-1.4c-1.1-1-1.6-2.4-1.6-4.3v-14.1h4.7v14
		c0,0.7,0.2,1.2,0.5,1.6c0.3,0.4,0.8,0.6,1.4,0.6c0.8,0,1.4-0.2,1.9-0.6l1.2,3.3c-0.5,0.3-1,0.6-1.7,0.8
		C430.1,232.2,429.4,232.3,428.7,232.3z"/>
	<path class="st1" d="M440.1,232.3c-1.2,0-2.3-0.2-3.2-0.6c-0.9-0.4-1.6-1-2.1-1.7c-0.5-0.7-0.7-1.6-0.7-2.5c0-0.9,0.2-1.8,0.7-2.5
		c0.5-0.7,1.2-1.3,2.2-1.7c1-0.4,2.3-0.6,4-0.6h4.2v2.7h-3.8c-1.1,0-1.8,0.2-2.3,0.5c-0.4,0.4-0.6,0.8-0.6,1.3
		c0,0.6,0.2,1.1,0.7,1.4c0.5,0.3,1.1,0.5,1.9,0.5c0.8,0,1.5-0.2,2.1-0.5c0.6-0.4,1.1-0.9,1.3-1.6l0.7,2.2c-0.3,1-1,1.8-1.8,2.3
		C442.6,232,441.5,232.3,440.1,232.3z M445,232v-3.1l-0.3-0.7v-5.6c0-1-0.3-1.8-0.9-2.3c-0.6-0.6-1.5-0.8-2.8-0.8
		c-0.9,0-1.7,0.1-2.5,0.4c-0.8,0.3-1.5,0.6-2.1,1.1l-1.6-3.3c0.9-0.6,1.9-1.1,3.2-1.4s2.5-0.5,3.8-0.5c2.4,0,4.3,0.6,5.7,1.7
		c1.4,1.2,2,3,2,5.4v9.2H445z"/>
	<path class="st1" d="M463.3,215.7c1.3,0,2.4,0.3,3.4,0.8s1.8,1.3,2.4,2.3s0.9,2.4,0.9,4v9.2h-4.7v-8.5c0-1.3-0.3-2.2-0.9-2.9
		c-0.6-0.6-1.4-0.9-2.4-0.9c-0.7,0-1.4,0.2-2,0.5c-0.6,0.3-1,0.8-1.4,1.4s-0.5,1.4-0.5,2.4v7.9h-4.7V216h4.4v4.4l-0.8-1.3
		c0.6-1.1,1.4-1.9,2.5-2.5C460.7,216,461.9,215.7,463.3,215.7z"/>
	<path class="st1" d="M472.2,219.9v-3.6h11.1v3.6H472.2z M480.7,232.3c-1.9,0-3.4-0.5-4.4-1.4c-1.1-1-1.6-2.4-1.6-4.3v-14.1h4.7v14
		c0,0.7,0.2,1.2,0.5,1.6c0.3,0.4,0.8,0.6,1.4,0.6c0.8,0,1.4-0.2,1.9-0.6l1.2,3.3c-0.5,0.3-1,0.6-1.7,0.8
		C482.1,232.2,481.4,232.3,480.7,232.3z"/>
	<path class="st1" d="M492.5,232.3c-1.4,0-2.7-0.2-3.9-0.5c-1.3-0.3-2.3-0.7-3-1.2l1.5-3.3c0.8,0.4,1.6,0.8,2.6,1.1
		c1,0.3,2,0.4,3,0.4c1.1,0,1.8-0.1,2.3-0.4c0.4-0.3,0.7-0.6,0.7-1.1c0-0.4-0.2-0.7-0.5-0.9c-0.3-0.2-0.8-0.3-1.4-0.4
		c-0.6-0.1-1.2-0.2-1.9-0.3c-0.7-0.1-1.4-0.2-2.1-0.4c-0.7-0.2-1.3-0.4-1.9-0.8c-0.6-0.3-1.1-0.8-1.4-1.4c-0.3-0.6-0.5-1.3-0.5-2.2
		c0-1,0.3-1.9,0.9-2.7c0.6-0.8,1.4-1.4,2.5-1.8c1.1-0.4,2.4-0.7,4-0.7c1.1,0,2.2,0.1,3.4,0.4c1.1,0.2,2.1,0.6,2.8,1l-1.6,3.3
		c-0.8-0.4-1.5-0.7-2.3-0.9c-0.8-0.2-1.5-0.3-2.3-0.3c-1.1,0-1.9,0.1-2.3,0.4c-0.5,0.3-0.7,0.6-0.7,1.1c0,0.4,0.2,0.7,0.5,0.9
		c0.4,0.2,0.8,0.4,1.4,0.5c0.6,0.1,1.2,0.2,1.9,0.3c0.7,0.1,1.4,0.2,2.1,0.4c0.7,0.2,1.3,0.4,1.9,0.8s1.1,0.8,1.4,1.4
		c0.3,0.6,0.5,1.3,0.5,2.2c0,1-0.3,1.8-0.9,2.6s-1.5,1.4-2.6,1.8C495.5,232,494.1,232.3,492.5,232.3z"/>
</g>
<g>
	<path class="st2" d="M122.9,157.9h4.1l3.7,25.5c0.1,0.6,0.6,1.1,1.2,1.2c0.6,0.1,1.2-0.3,1.4-0.8l9.3-23.3c0.6-1.5,1.9-2.4,3.3-2.4
		h4c1.5,0,2.7,0.9,3.3,2.4l9.3,23.3l0,0c0.2,0.6,0.8,0.9,1.4,0.8c0.6-0.1,1.1-0.5,1.2-1.2l3.7-25.5h4.1l-3.8,26.4
		c-0.3,2-1.8,3.5-3.6,3.5h-0.9h-0.4h-2c-1.5,0-2.7-0.9-3.3-2.4l-9.1-22.7c-0.3-0.8-1-1.2-1.7-1.2h-0.4c-0.7,0-1.4,0.5-1.7,1.2
		l-9.1,22.7c-0.6,1.5-1.9,2.4-3.3,2.4h-2h-0.4h-0.9c-1.8,0-3.3-1.5-3.6-3.5L122.9,157.9z"/>
	<path class="st2" d="M215.1,157.9c4.1,0,7.4,3.8,7.4,8.4v13.2c0,4.6-3.3,8.4-7.4,8.4h-7.4H207h-0.7H205h-2h-2h-1.3H199h-0.7h-7.4
		c-4.1,0-7.4-3.8-7.4-8.4v-13.2c0-4.6,3.3-8.4,7.4-8.4h8.2h0.4h1.6h2h2h1.6h0.4H215.1z M207,183.8h0.7h0.4h7c0.3,0,0.5,0,0.8-0.1
		c1.7-0.5,2.6-2.6,2.6-4.2V179c0,0,0-0.1,0-0.1v-12.1c0,0,0-0.1,0-0.1v-0.4c0-1.6-0.9-3.7-2.6-4.2c-0.2-0.1-0.5-0.1-0.8-0.1H207
		h-0.4H205h-2h-2h-1.6H199h-8.2c-0.3,0-0.5,0-0.8,0.1c-1.7,0.5-2.6,2.6-2.6,4.2v0.4c0,0,0,0.1,0,0.1v12.1c0,0,0,0.1,0,0.1v0.4
		c0,1.6,0.9,3.7,2.6,4.2c0.2,0.1,0.5,0.1,0.8,0.1h7h0.4h0.7h7.3H207z"/>
	<path class="st2" d="M266,169.4v-3.1c0-1.9-1.2-4.4-3.4-4.4h-25.7v25.9h-4v-29.9h29.7c4.1,0,7.4,3.8,7.4,8.4v3.1c0,4.4-3,8-6.8,8.3
		l7.2,10.1h-4.9l-7.2-10h-13.6v-3.6v-0.4h17.9C264.8,173.7,266,171.3,266,169.4z"/>
	<path class="st2" d="M316,187.8h-27.8c-1.2,0-2.3-0.3-3.3-0.9c-0.2-0.1-0.5-0.3-0.7-0.5c-2.1-1.5-3.3-4.2-3.3-7v-21.5h4v21.5
		c0,1.4,0.6,2.9,1.7,3.8c0.1,0.1,0.2,0.1,0.3,0.2c0.4,0.2,0.8,0.4,1.3,0.4H316V187.8z"/>
	<path class="st2" d="M330.4,157.9h26.7c4.1,0,7.4,3.8,7.4,8.4v13.2c0,4.6-3.3,8.4-7.4,8.4h-26.7h-2h-2v-29.9h2H330.4z M357.1,183.8
		c0.3,0,0.5,0,0.8-0.1c1.7-0.5,2.6-2.6,2.6-4.2V179c0,0,0-0.1,0-0.1v-12.1c0,0,0-0.1,0-0.1v-0.4c0-1.6-0.9-3.7-2.6-4.2
		c-0.2-0.1-0.5-0.1-0.8-0.1h-26.7v21.9H357.1z"/>
	<path class="st2" d="M389,157.9h4.1l3.7,25.5c0.1,0.6,0.6,1.1,1.2,1.2c0.6,0.1,1.2-0.3,1.4-0.8l9.3-23.3c0.6-1.5,1.9-2.4,3.3-2.4h4
		c1.5,0,2.7,0.9,3.3,2.4l9.3,23.3l0,0c0.2,0.6,0.8,0.9,1.4,0.8c0.6-0.1,1.1-0.5,1.2-1.2l3.7-25.5h4.1l-3.8,26.4
		c-0.3,2-1.8,3.5-3.6,3.5h-0.9h-0.4h-2c-1.5,0-2.7-0.9-3.3-2.4l-9.1-22.7c-0.3-0.8-1-1.2-1.7-1.2h-0.4c-0.7,0-1.4,0.5-1.7,1.2
		l-9.1,22.7c-0.6,1.5-1.9,2.4-3.3,2.4h-2h-0.4h-0.9c-1.8,0-3.3-1.5-3.6-3.5L389,157.9z"/>
	<path class="st2" d="M455.1,157.9v29.9h-4v-29.9H455.1z"/>
	<path class="st2" d="M470.7,157.9h26.7c4.1,0,7.4,3.8,7.4,8.4v13.2c0,4.6-3.3,8.4-7.4,8.4h-26.7h-2h-2v-29.9h2H470.7z M497.4,183.8
		c0.3,0,0.5,0,0.8-0.1c1.7-0.5,2.6-2.6,2.6-4.2V179c0,0,0-0.1,0-0.1v-12.1c0,0,0-0.1,0-0.1v-0.4c0-1.6-0.9-3.7-2.6-4.2
		c-0.2-0.1-0.5-0.1-0.8-0.1h-26.7v21.9H497.4z"/>
	<path class="st2" d="M516.5,166.2c0-4.6,3.3-8.4,7.4-8.4h29.7v3.5v0.5h-29.7c-0.3,0-0.5,0-0.8,0.1c-1.7,0.5-2.6,2.6-2.6,4.2v0.4
		c0,0,0,0.1,0,0.1v12.1c0,0,0,0.1,0,0.1v0.4c0,1.6,0.9,3.7,2.6,4.2c0.2,0.1,0.5,0.1,0.8,0.1h29.7v0.5v3.5h-29.7
		c-4.1,0-7.4-3.8-7.4-8.4V166.2z M553.6,174.8v-4h-25.3v4H553.6z"/>
</g>
</svg>
