<?xml version="1.0" encoding="utf-8"?>
<!-- Generator: Adobe Illustrator 27.3.1, SVG Export Plug-In . SVG Version: 6.00 Build 0)  -->
<svg version="1.1" id="Layer_2_00000150782160744572010230000008560106029070022580_"
	 xmlns="http://www.w3.org/2000/svg" xmlns:xlink="http://www.w3.org/1999/xlink" x="0px" y="0px" viewBox="0 0 676.6 237.4"
	 style="enable-background:new 0 0 676.6 237.4;" xml:space="preserve">
<style type="text/css">
	.st0{fill:#FFFFFF;}
	.st1{font-family:'QucinerRegular';}
	.st2{font-size:49.8136px;}
	.st3{letter-spacing:1;}
	.st4{letter-spacing:-14;}
	.st5{letter-spacing:3;}
	.st6{letter-spacing:2;}
	.st7{letter-spacing:6;}
</style>
<g id="Tours">
	<g>
		<g>
			<path class="st0" d="M328.9,4.4l-60.1,110.4h-19.4L189.2,4.4h21.1l49.3,90.7l49.7-90.7H328.9z"/>
			<polygon class="st0" points="401.1,114.6 351.4,23.9 302.1,114.6 280.9,114.6 341.2,4.2 360.6,4.2 410.2,95.3 416.6,83.6 
				460.3,4 479.9,4 425.1,104.5 419.7,114.6 			"/>
		</g>
		<g>
			<polygon class="st0" points="193.4,35.4 202.9,52.7 52.4,52.7 33.7,35.4 			"/>
			<polygon class="st0" points="85.8,83.4 67,66.1 210.4,66.1 219.9,83.4 			"/>
			<polygon class="st0" points="19.1,22 0,4.4 176.2,4.4 185.9,22 			"/>
			<polygon class="st0" points="227.4,96.8 237.2,114.5 119.5,114.5 100.4,96.8 			"/>
		</g>
		<g>
			<polygon class="st0" points="474,35.4 464.4,52.7 614.9,52.7 633.7,35.4 			"/>
			<polygon class="st0" points="581.6,83.4 600.3,66.1 457,66.1 447.4,83.4 			"/>
			<polygon class="st0" points="648.3,22 667.3,4.4 491.1,4.4 481.4,22 			"/>
			<polygon class="st0" points="439.9,96.8 430.2,114.5 547.8,114.5 567,96.8 			"/>
		</g>
	</g>
</g>
<g>
	<g>
		<path class="st0" d="M201.7,230.3v-15.6h-6.2V211h16.8v3.6h-6.2v15.6H201.7z"/>
		<path class="st0" d="M221.4,230.5c-1.6,0-2.9-0.3-4.2-1c-1.2-0.7-2.2-1.6-2.9-2.7c-0.7-1.1-1-2.5-1-3.9c0-1.5,0.3-2.8,1-3.9
			c0.7-1.1,1.7-2,2.9-2.7c1.2-0.7,2.6-1,4.2-1c1.6,0,3,0.3,4.2,1c1.2,0.7,2.2,1.5,2.9,2.7s1,2.5,1,3.9s-0.3,2.8-1,3.9
			s-1.7,2-2.9,2.7S223,230.5,221.4,230.5z M221.4,227c0.7,0,1.4-0.2,1.9-0.5c0.6-0.3,1-0.8,1.3-1.4c0.3-0.6,0.5-1.4,0.5-2.2
			c0-0.9-0.2-1.6-0.5-2.2c-0.3-0.6-0.8-1.1-1.3-1.4c-0.6-0.3-1.2-0.5-1.9-0.5s-1.4,0.2-1.9,0.5c-0.6,0.3-1,0.8-1.4,1.4
			c-0.3,0.6-0.5,1.3-0.5,2.2c0,0.8,0.2,1.6,0.5,2.2c0.3,0.6,0.8,1.1,1.4,1.4C220.1,226.8,220.8,227,221.4,227z"/>
		<path class="st0" d="M238.7,230.5c-1.2,0-2.3-0.2-3.3-0.7c-1-0.5-1.7-1.2-2.2-2.2c-0.5-1-0.8-2.2-0.8-3.7v-8.4h4.3v7.7
			c0,1.2,0.3,2.2,0.8,2.7c0.5,0.6,1.3,0.9,2.2,0.9c0.7,0,1.2-0.1,1.8-0.4c0.5-0.3,0.9-0.7,1.2-1.3c0.3-0.6,0.5-1.3,0.5-2.2v-7.3h4.3
			v14.8h-4.1v-4.1l0.7,1.2c-0.5,1-1.2,1.8-2.2,2.3C240.9,230.2,239.8,230.5,238.7,230.5z"/>
		<path class="st0" d="M251.3,230.3v-14.8h4.1v4.2l-0.6-1.2c0.4-1,1.1-1.8,2.1-2.4c1-0.5,2.2-0.8,3.5-0.8v4c-0.2,0-0.3-0.1-0.5-0.1
			c-0.2,0-0.3,0-0.5,0c-1.2,0-2.2,0.3-2.9,1c-0.7,0.7-1.1,1.7-1.1,3.1v7H251.3z"/>
		<path class="st0" d="M268.2,230.5c-1.3,0-2.5-0.2-3.6-0.5c-1.2-0.3-2.1-0.7-2.8-1.1l1.4-3.1c0.7,0.4,1.5,0.7,2.4,1
			c0.9,0.3,1.8,0.4,2.7,0.4c1,0,1.7-0.1,2.1-0.4c0.4-0.2,0.6-0.6,0.6-1c0-0.3-0.2-0.6-0.5-0.8c-0.3-0.2-0.7-0.3-1.3-0.4
			s-1.1-0.2-1.7-0.3c-0.6-0.1-1.3-0.2-1.9-0.4c-0.6-0.2-1.2-0.4-1.8-0.7c-0.5-0.3-1-0.7-1.3-1.3c-0.3-0.5-0.5-1.2-0.5-2.1
			c0-0.9,0.3-1.8,0.8-2.5c0.6-0.7,1.3-1.3,2.3-1.7c1-0.4,2.2-0.6,3.7-0.6c1,0,2.1,0.1,3.1,0.3c1,0.2,1.9,0.5,2.6,0.9l-1.5,3.1
			c-0.7-0.4-1.4-0.7-2.1-0.9s-1.4-0.2-2.1-0.2c-1,0-1.7,0.1-2.1,0.4c-0.4,0.3-0.7,0.6-0.7,1c0,0.4,0.2,0.6,0.5,0.8
			c0.3,0.2,0.8,0.3,1.3,0.4c0.5,0.1,1.1,0.2,1.8,0.3c0.6,0.1,1.3,0.2,1.9,0.4s1.2,0.4,1.7,0.7c0.5,0.3,1,0.7,1.3,1.3
			c0.3,0.5,0.5,1.2,0.5,2.1c0,0.9-0.3,1.7-0.8,2.4c-0.6,0.7-1.3,1.3-2.4,1.7C270.9,230.3,269.7,230.5,268.2,230.5z"/>
		<path class="st0" d="M291.9,230.6c-1.4,0-2.6-0.2-3.8-0.7c-1.1-0.5-2-1.1-2.6-1.9c-0.6-0.8-1-1.7-1-2.7c0-1,0.2-1.8,0.6-2.6
			c0.4-0.8,1.1-1.5,2-2.1s2.1-1.3,3.5-2c1-0.5,1.8-0.9,2.4-1.3c0.6-0.4,1-0.7,1.2-1c0.2-0.3,0.4-0.7,0.4-1c0-0.5-0.2-0.8-0.5-1.1
			c-0.3-0.3-0.8-0.5-1.4-0.5c-0.7,0-1.2,0.2-1.5,0.5c-0.4,0.3-0.6,0.8-0.6,1.3c0,0.3,0.1,0.5,0.2,0.8c0.1,0.3,0.3,0.6,0.6,0.9
			c0.3,0.3,0.7,0.8,1.3,1.3l10.2,9.4l-2.3,2.7l-11.2-10.4c-0.6-0.6-1.1-1.1-1.5-1.6c-0.4-0.5-0.7-1-0.9-1.5c-0.2-0.5-0.3-1-0.3-1.5
			c0-0.9,0.3-1.8,0.8-2.5c0.5-0.7,1.2-1.3,2.1-1.7s1.9-0.6,3.1-0.6c1.1,0,2.1,0.2,2.9,0.5s1.5,0.9,1.9,1.5c0.5,0.7,0.7,1.4,0.7,2.4
			c0,0.8-0.2,1.5-0.6,2.2c-0.4,0.7-1,1.3-1.9,1.9c-0.9,0.6-2,1.2-3.3,1.8c-0.9,0.4-1.7,0.8-2.2,1.2c-0.5,0.4-0.9,0.8-1.2,1.2
			c-0.2,0.4-0.4,0.8-0.4,1.4c0,0.4,0.1,0.8,0.4,1.2c0.3,0.4,0.7,0.6,1.2,0.8c0.5,0.2,1.1,0.3,1.8,0.3c1.1,0,2.1-0.3,3.1-0.8
			c0.9-0.5,1.7-1.3,2.4-2.3c0.7-1,1.1-2.3,1.4-3.7l3.4,1c-0.4,1.9-1,3.5-2,4.9c-1,1.4-2.2,2.4-3.7,3.2S293.7,230.6,291.9,230.6z"/>
		<path class="st0" d="M322.9,230.6c-1.5,0-2.9-0.2-4.1-0.7c-1.3-0.5-2.4-1.2-3.3-2.1c-0.9-0.9-1.7-2-2.2-3.2
			c-0.5-1.2-0.8-2.5-0.8-4c0-1.4,0.3-2.8,0.8-4c0.5-1.2,1.3-2.3,2.2-3.2c0.9-0.9,2.1-1.6,3.3-2.1c1.3-0.5,2.7-0.7,4.1-0.7
			c1.7,0,3.2,0.3,4.5,0.9c1.4,0.6,2.5,1.4,3.4,2.5l-2.9,2.6c-0.6-0.8-1.4-1.3-2.2-1.7c-0.8-0.4-1.7-0.6-2.7-0.6
			c-0.9,0-1.7,0.2-2.5,0.5s-1.4,0.7-2,1.3c-0.5,0.5-1,1.2-1.3,2c-0.3,0.8-0.5,1.6-0.5,2.5s0.2,1.8,0.5,2.5c0.3,0.8,0.7,1.4,1.3,2
			c0.6,0.6,1.2,1,2,1.3s1.6,0.5,2.5,0.5c1,0,1.8-0.2,2.7-0.6c0.8-0.4,1.5-1,2.2-1.7l2.9,2.6c-0.9,1.1-2.1,2-3.4,2.6
			C326.1,230.3,324.6,230.6,322.9,230.6z"/>
		<path class="st0" d="M340.6,230.5c-1.6,0-2.9-0.3-4.2-1c-1.2-0.7-2.2-1.6-2.9-2.7c-0.7-1.1-1-2.5-1-3.9c0-1.5,0.3-2.8,1-3.9
			c0.7-1.1,1.7-2,2.9-2.7c1.2-0.7,2.6-1,4.2-1c1.6,0,3,0.3,4.2,1c1.2,0.7,2.2,1.5,2.9,2.7s1,2.5,1,3.9s-0.3,2.8-1,3.9
			s-1.7,2-2.9,2.7S342.2,230.5,340.6,230.5z M340.6,227c0.7,0,1.4-0.2,1.9-0.5c0.6-0.3,1-0.8,1.3-1.4c0.3-0.6,0.5-1.4,0.5-2.2
			c0-0.9-0.2-1.6-0.5-2.2c-0.3-0.6-0.8-1.1-1.3-1.4c-0.6-0.3-1.2-0.5-1.9-0.5s-1.4,0.2-1.9,0.5c-0.6,0.3-1,0.8-1.4,1.4
			c-0.3,0.6-0.5,1.3-0.5,2.2c0,0.8,0.2,1.6,0.5,2.2c0.3,0.6,0.8,1.1,1.4,1.4C339.3,226.8,339.9,227,340.6,227z"/>
		<path class="st0" d="M360.6,215.3c1.2,0,2.2,0.2,3.1,0.7c0.9,0.5,1.7,1.2,2.2,2.1c0.5,1,0.8,2.2,0.8,3.7v8.5h-4.3v-7.8
			c0-1.2-0.3-2.1-0.8-2.6c-0.5-0.6-1.3-0.9-2.2-0.9c-0.7,0-1.3,0.1-1.8,0.4c-0.5,0.3-1,0.7-1.3,1.3s-0.5,1.3-0.5,2.3v7.3h-4.3v-14.8
			h4.1v4.1l-0.8-1.2c0.5-1,1.3-1.8,2.3-2.3C358.2,215.5,359.3,215.3,360.6,215.3z"/>
		<path class="st0" d="M375.6,230.5c-1.3,0-2.5-0.2-3.6-0.5c-1.2-0.3-2.1-0.7-2.8-1.1l1.4-3.1c0.7,0.4,1.5,0.7,2.4,1
			c0.9,0.3,1.8,0.4,2.7,0.4c1,0,1.7-0.1,2.1-0.4c0.4-0.2,0.6-0.6,0.6-1c0-0.3-0.2-0.6-0.5-0.8c-0.3-0.2-0.7-0.3-1.3-0.4
			c-0.5-0.1-1.1-0.2-1.7-0.3c-0.6-0.1-1.3-0.2-1.9-0.4s-1.2-0.4-1.8-0.7s-1-0.7-1.3-1.3c-0.3-0.5-0.5-1.2-0.5-2.1
			c0-0.9,0.3-1.8,0.8-2.5c0.5-0.7,1.3-1.3,2.3-1.7c1-0.4,2.2-0.6,3.7-0.6c1,0,2.1,0.1,3.1,0.3c1,0.2,1.9,0.5,2.6,0.9l-1.5,3.1
			c-0.7-0.4-1.4-0.7-2.1-0.9s-1.4-0.2-2.1-0.2c-1,0-1.7,0.1-2.1,0.4c-0.4,0.3-0.7,0.6-0.7,1c0,0.4,0.2,0.6,0.5,0.8
			c0.3,0.2,0.8,0.3,1.3,0.4s1.1,0.2,1.8,0.3s1.3,0.2,1.9,0.4c0.6,0.2,1.2,0.4,1.7,0.7c0.5,0.3,1,0.7,1.3,1.3
			c0.3,0.5,0.5,1.2,0.5,2.1c0,0.9-0.3,1.7-0.8,2.4c-0.5,0.7-1.3,1.3-2.4,1.7C378.3,230.3,377.1,230.5,375.6,230.5z"/>
		<path class="st0" d="M391.4,230.5c-1.2,0-2.3-0.2-3.3-0.7c-1-0.5-1.7-1.2-2.2-2.2c-0.5-1-0.8-2.2-0.8-3.7v-8.4h4.3v7.7
			c0,1.2,0.3,2.2,0.8,2.7c0.5,0.6,1.3,0.9,2.2,0.9c0.7,0,1.2-0.1,1.8-0.4c0.5-0.3,0.9-0.7,1.2-1.3s0.5-1.3,0.5-2.2v-7.3h4.3v14.8
			H396v-4.1l0.7,1.2c-0.5,1-1.2,1.8-2.2,2.3C393.6,230.2,392.6,230.5,391.4,230.5z"/>
		<path class="st0" d="M404.1,230.3v-20.4h4.3v20.4H404.1z"/>
		<path class="st0" d="M410.6,219.1v-3.3h10.3v3.3H410.6z M418.4,230.5c-1.7,0-3.1-0.4-4.1-1.3c-1-0.9-1.5-2.2-1.5-4v-13h4.3v12.9
			c0,0.6,0.2,1.1,0.5,1.5c0.3,0.3,0.8,0.5,1.3,0.5c0.7,0,1.3-0.2,1.8-0.6l1.1,3c-0.4,0.3-0.9,0.5-1.6,0.7
			C419.7,230.4,419.1,230.5,418.4,230.5z"/>
		<path class="st0" d="M428.9,230.5c-1.1,0-2.1-0.2-2.9-0.6c-0.8-0.4-1.5-0.9-1.9-1.6s-0.7-1.4-0.7-2.3c0-0.9,0.2-1.6,0.6-2.3
			c0.4-0.7,1.1-1.2,2-1.6c0.9-0.4,2.2-0.5,3.7-0.5h3.9v2.5h-3.5c-1,0-1.7,0.2-2.1,0.5s-0.6,0.7-0.6,1.2c0,0.5,0.2,1,0.6,1.3
			c0.4,0.3,1,0.5,1.7,0.5s1.4-0.2,2-0.5c0.6-0.3,1-0.8,1.2-1.5l0.7,2c-0.3,0.9-0.9,1.6-1.7,2.1C431.3,230.2,430.2,230.5,428.9,230.5
			z M433.4,230.3v-2.9l-0.3-0.6v-5.2c0-0.9-0.3-1.6-0.8-2.1c-0.6-0.5-1.4-0.8-2.6-0.8c-0.8,0-1.6,0.1-2.3,0.4c-0.8,0.2-1.4,0.6-2,1
			l-1.5-3c0.8-0.6,1.8-1,2.9-1.3c1.1-0.3,2.3-0.5,3.5-0.5c2.3,0,4,0.5,5.3,1.6c1.2,1.1,1.9,2.7,1.9,5v8.4H433.4z"/>
		<path class="st0" d="M450.3,215.3c1.2,0,2.2,0.2,3.1,0.7c0.9,0.5,1.7,1.2,2.2,2.1c0.5,1,0.8,2.2,0.8,3.7v8.5h-4.3v-7.8
			c0-1.2-0.3-2.1-0.8-2.6c-0.5-0.6-1.3-0.9-2.2-0.9c-0.7,0-1.3,0.1-1.8,0.4c-0.5,0.3-1,0.7-1.3,1.3s-0.5,1.3-0.5,2.3v7.3h-4.3v-14.8
			h4.1v4.1l-0.8-1.2c0.5-1,1.3-1.8,2.3-2.3C447.9,215.5,449,215.3,450.3,215.3z"/>
		<path class="st0" d="M458.6,219.1v-3.3h10.3v3.3H458.6z M466.4,230.5c-1.7,0-3.1-0.4-4.1-1.3c-1-0.9-1.5-2.2-1.5-4v-13h4.3v12.9
			c0,0.6,0.2,1.1,0.5,1.5c0.3,0.3,0.8,0.5,1.3,0.5c0.7,0,1.3-0.2,1.8-0.6l1.1,3c-0.4,0.3-0.9,0.5-1.6,0.7
			C467.7,230.4,467,230.5,466.4,230.5z"/>
		<path class="st0" d="M477.3,230.5c-1.3,0-2.5-0.2-3.6-0.5c-1.2-0.3-2.1-0.7-2.8-1.1l1.4-3.1c0.7,0.4,1.5,0.7,2.4,1
			c0.9,0.3,1.8,0.4,2.7,0.4c1,0,1.7-0.1,2.1-0.4c0.4-0.2,0.6-0.6,0.6-1c0-0.3-0.2-0.6-0.5-0.8c-0.3-0.2-0.7-0.3-1.3-0.4
			c-0.5-0.1-1.1-0.2-1.7-0.3c-0.6-0.1-1.3-0.2-1.9-0.4s-1.2-0.4-1.8-0.7s-1-0.7-1.3-1.3c-0.3-0.5-0.5-1.2-0.5-2.1
			c0-0.9,0.3-1.8,0.8-2.5c0.5-0.7,1.3-1.3,2.3-1.7c1-0.4,2.2-0.6,3.7-0.6c1,0,2.1,0.1,3.1,0.3c1,0.2,1.9,0.5,2.6,0.9l-1.5,3.1
			c-0.7-0.4-1.4-0.7-2.1-0.9s-1.4-0.2-2.1-0.2c-1,0-1.7,0.1-2.1,0.4c-0.4,0.3-0.7,0.6-0.7,1c0,0.4,0.2,0.6,0.5,0.8
			c0.3,0.2,0.8,0.3,1.3,0.4s1.1,0.2,1.8,0.3s1.3,0.2,1.9,0.4c0.6,0.2,1.2,0.4,1.7,0.7c0.5,0.3,1,0.7,1.3,1.3
			c0.3,0.5,0.5,1.2,0.5,2.1c0,0.9-0.3,1.7-0.8,2.4c-0.5,0.7-1.3,1.3-2.4,1.7C480,230.3,478.8,230.5,477.3,230.5z"/>
	</g>
</g>
<text transform="matrix(1 0 0 1 118.2983 186.7109)"><tspan x="0" y="0" class="st0 st1 st2 st3">WORLD</tspan><tspan x="252" y="0" class="st0 st1 st2 st4"> </tspan><tspan x="266.1" y="0" class="st0 st1 st2 st5">W</tspan><tspan x="328.1" y="0" class="st0 st1 st2 st6">ID</tspan><tspan x="393.5" y="0" class="st0 st1 st2 st7">E</tspan></text>
</svg>
