<?xml version="1.0" encoding="utf-8"?>
<!-- Generator: Adobe Illustrator 27.3.1, SVG Export Plug-In . SVG Version: 6.00 Build 0)  -->
<svg version="1.1" id="Layer_2_00000150782160744572010230000008560106029070022580_"
	 xmlns="http://www.w3.org/2000/svg" xmlns:xlink="http://www.w3.org/1999/xlink" x="0px" y="0px" viewBox="0 0 676.6 237.4"
	 style="enable-background:new 0 0 676.6 237.4;" xml:space="preserve">
<style type="text/css">
	.st0{fill:#FFFFFF;}
	.st1{font-family:'Montserrat-Regular';}
	.st2{font-size:40.7222px;}
	.st3{letter-spacing:-2;}
</style>
<g id="Tours">
	<g>
		<g>
			<path class="st0" d="M92.8,144.4h4.5l4,28.1c0.1,0.7,0.6,1.2,1.3,1.3c0.7,0.1,1.3-0.3,1.6-0.9l10.3-25.7c0.7-1.7,2.1-2.7,3.7-2.7
				h4.4c1.6,0,3,1,3.7,2.7l10.3,25.7l0,0c0.3,0.6,0.9,1,1.6,0.9c0.7-0.1,1.2-0.6,1.3-1.3l4-28.1h4.5l-4.2,29.1c-0.3,2.2-2,3.8-4,3.8
				h-3.7c-1.6,0-3-1-3.7-2.7l-10-25c-0.3-0.8-1.1-1.4-1.9-1.4h-0.4c-0.8,0-1.5,0.5-1.9,1.4l-10,25c-0.7,1.7-2.1,2.7-3.7,2.7H101
				c-2,0-3.7-1.6-4-3.8L92.8,144.4L92.8,144.4z"/>
			<path class="st0" d="M198.4,144.4c4.5,0,8.1,4.1,8.1,9.2v14.5c0,5.1-3.7,9.2-8.1,9.2h-26.8c-4.5,0-8.1-4.1-8.1-9.2v-14.5
				c0-5.1,3.7-9.2,8.1-9.2H198.4z M189.4,173h9c0.3,0,0.6,0,0.8-0.1c1.8-0.6,2.9-2.9,2.9-4.7v-0.4c0,0,0-0.1,0-0.1v-13.3
				c0,0,0-0.1,0-0.1v-0.4c0-1.8-1-4.1-2.9-4.7c-0.3-0.1-0.5-0.1-0.8-0.1h-26.8c-0.3,0-0.6,0-0.8,0.1c-1.8,0.6-2.9,2.9-2.9,4.7v0.4
				c0,0,0,0.1,0,0.1v13.3c0,0,0,0.1,0,0.1v0.4c0,1.8,1,4.1,2.9,4.7c0.3,0.1,0.5,0.1,0.8,0.1L189.4,173L189.4,173z"/>
			<path class="st0" d="M258.4,157.1v-3.5c0-2.1-1.3-4.8-3.7-4.8h-28.3v28.5h-4.4v-32.9h32.8c4.5,0,8.1,4.1,8.1,9.2v3.5
				c0,4.8-3.3,8.8-7.5,9.2l8,11.1h-5.5l-8-11.1h-15v-4.4h19.7C257,161.9,258.4,159.2,258.4,157.1L258.4,157.1z"/>
			<path class="st0" d="M317.4,177.4h-30.6c-1.3,0-2.5-0.4-3.6-1c-0.3-0.1-0.5-0.3-0.8-0.5c-2.3-1.7-3.7-4.6-3.7-7.7v-23.7h4.4v23.7
				c0,1.6,0.6,3.2,1.9,4.2c0.1,0.1,0.2,0.2,0.3,0.2c0.4,0.3,0.9,0.4,1.4,0.4h30.6L317.4,177.4L317.4,177.4z"/>
			<path class="st0" d="M337.2,144.4h29.4c4.5,0,8.1,4.1,8.1,9.2v14.5c0,5.1-3.7,9.2-8.1,9.2h-33.9v-32.9L337.2,144.4L337.2,144.4z
				 M366.6,173c0.3,0,0.6,0,0.8-0.1c1.8-0.6,2.9-2.9,2.9-4.7v-0.4c0,0,0-0.1,0-0.2v-13.3c0,0,0-0.1,0-0.2v-0.4c0-1.8-1-4.1-2.9-4.7
				c-0.3-0.1-0.5-0.1-0.8-0.1h-29.4v24.1L366.6,173L366.6,173z"/>
			<path class="st0" d="M403.9,144.4h4.5l4,28.1c0.1,0.7,0.6,1.2,1.3,1.3c0.7,0.1,1.3-0.3,1.6-0.9l10.3-25.7
				c0.7-1.7,2.1-2.7,3.7-2.7h4.4c1.6,0,3,1,3.7,2.7l10.3,25.7l0,0c0.3,0.6,0.9,1,1.6,0.9c0.7-0.1,1.2-0.6,1.3-1.3l4-28.1h4.5
				l-4.2,29.1c-0.3,2.2-2,3.8-4,3.8h-3.7c-1.6,0-3-1-3.7-2.7l-10-25c-0.3-0.8-1.1-1.4-1.9-1.4h-0.4c-0.8,0-1.5,0.5-1.9,1.4l-10,25
				c-0.7,1.7-2.1,2.7-3.7,2.7H412c-2,0-3.7-1.6-4-3.8L403.9,144.4L403.9,144.4z"/>
			<path class="st0" d="M478.9,144.4v32.9h-4.4v-32.9H478.9z"/>
			<path class="st0" d="M498.6,144.4h29.4c4.5,0,8.1,4.1,8.1,9.2v14.5c0,5.1-3.7,9.2-8.1,9.2h-33.9v-32.9L498.6,144.4L498.6,144.4z
				 M528.1,173c0.3,0,0.6,0,0.8-0.1c1.8-0.6,2.9-2.9,2.9-4.7v-0.4c0,0,0-0.1,0-0.2v-13.3c0,0,0-0.1,0-0.2v-0.4c0-1.8-1-4.1-2.9-4.7
				c-0.3-0.1-0.5-0.1-0.8-0.1h-29.4v24.1L528.1,173L528.1,173z"/>
			<path class="st0" d="M551.6,153.6c0-5.1,3.7-9.2,8.1-9.2h32.8v4.4h-32.8c-0.3,0-0.6,0-0.8,0.1c-1.8,0.6-2.9,2.9-2.9,4.7v0.4
				c0,0,0,0.1,0,0.2v13.3c0,0,0,0.1,0,0.2v0.4c0,1.8,1,4.1,2.9,4.7c0.3,0.1,0.5,0.1,0.8,0.1h32.8v4.4h-32.8c-4.5,0-8.1-4.1-8.1-9.2
				V153.6L551.6,153.6z M592.5,163.1v-4.4h-27.9v4.4H592.5z"/>
		</g>
		<g>
			<path class="st0" d="M338.8,3.1l-55.6,102.1h-17.9L209.5,3.1h19.5l45.6,83.9l46-83.9H338.8z"/>
			<polygon class="st0" points="405.5,104.9 359.6,21.1 314,104.9 294.4,104.9 350.2,2.8 368.1,2.8 413.9,87.1 419.9,76.3 
				460.3,2.6 478.4,2.6 427.8,95.6 422.7,104.9 			"/>
		</g>
		<g>
			<polygon class="st0" points="213.4,31.7 222.3,47.7 83,47.7 65.7,31.7 			"/>
			<polygon class="st0" points="113.9,76.1 96.5,60.1 229.2,60.1 238,76.1 			"/>
			<polygon class="st0" points="52.2,19.3 34.6,3.1 197.5,3.1 206.5,19.3 			"/>
			<polygon class="st0" points="244.9,88.5 253.9,104.8 145.1,104.8 127.4,88.5 			"/>
		</g>
		<g>
			<polygon class="st0" points="472.9,31.7 464.1,47.7 603.3,47.7 620.7,31.7 			"/>
			<polygon class="st0" points="572.5,76.1 589.8,60.1 457.2,60.1 448.4,76.1 			"/>
			<polygon class="st0" points="634.2,19.3 651.8,3.1 488.8,3.1 479.8,19.3 			"/>
			<polygon class="st0" points="441.5,88.5 432.4,104.8 541.2,104.8 559,88.5 			"/>
		</g>
		<text transform="matrix(1 0 0 1 146.9669 224.2588)" class="st0 st1 st2 st3">T</text>
		<text transform="matrix(1 0 0 1 168.9572 224.2588)" class="st0 st1 st2">ours &amp; </text>
		<text transform="matrix(1 0 0 1 309.1554 224.2588)" class="st0 st1 st2">C</text>
		<text transform="matrix(1 0 0 1 338.526 224.2588)" class="st0 st1 st2">onsulta</text>
		<text transform="matrix(1 0 0 1 490.3698 224.2588)" class="st0 st1 st2">n</text>
		<text transform="matrix(1 0 0 1 516.399 224.2588)" class="st0 st1 st2">ts</text>
	</g>
</g>
</svg>
