<?xml version="1.0" encoding="UTF-8"?>
<svg id="Layer_2" data-name="Layer 2" xmlns="http://www.w3.org/2000/svg" viewBox="0 0 118.32 126.2">
  <defs>
    <style>
      .cls-1 {
        fill: #29abe2;
      }
    </style>
  </defs>
  <g id="Layer_1-2" data-name="Layer 1">
    <g>
      <path class="cls-1" d="m45.62,102.02c-1.2.93-.96,2.07-.96,3.08-.03,3.94.02,7.87-.03,11.81-.08,6.31-4.25,10.06-10.52,8.91-4.3-.79-8.44-1.15-12.68.03-1.9.53-3.81.08-5.62-.62-3.07-1.19-4.88-3.34-4.97-6.73-.03-.95-.03-1.91-.03-2.86,0-7.87.01-15.75,0-23.62,0-1.29-.11-2.58-.19-4.1-1.22-.26-2.24-.47-3.25-.69-4.94-1.07-7.28-3.73-7.31-8.71-.07-11.69-.08-23.38,0-35.07.04-5.98,4.48-11.31,10.83-13.17,1.81-.53,3.75-.85,5.64-.87,7.41-.1,14.82-.11,22.23,0,2,.03,4.05.42,5.97.99,1.45.43,2.79,1.33,4.05,2.2,1.03.71,1.62,1.77,1.1,3.11-.53,1.36-1.93,2.29-3.4,2.11-.7-.08-1.4-.33-2.03-.64-3.08-1.52-6.36-1.98-9.74-1.98-5.26,0-10.52-.06-15.77.04-1.89.03-3.83.26-5.66.73-4.66,1.2-7,4.15-7.35,8.97-.07.95-.05,1.91-.05,2.86,0,8.59,0,17.18.03,25.76,0,1.43.04,2.87.26,4.28.36,2.3,1.02,3.01,2.42,2.95,1.45-.06,2-.86,2.13-3.12.04-.83.02-1.67.02-2.5,0-6.92,0-13.84,0-20.76,0-1.07,0-2.16.22-3.2.3-1.46,1.38-2.33,2.72-2.45,1.38-.12,2.54.5,2.93,2.07.42,1.71.63,3.52.63,5.28.04,19.2.02,38.41.02,57.61,0,1.07-.04,2.15.04,3.22.15,2.07.58,2.48,2.61,2.62.59.04,1.2.04,1.79-.01,1.93-.18,2.47-.7,2.66-2.67.09-.95.05-1.91.05-2.86,0-9.3,0-18.61,0-27.91,0-1.07,0-2.16.18-3.2.25-1.35,1.42-2.26,2.78-2.39,1.35-.14,2.56.55,2.94,2.06.37,1.48.53,3.05.54,4.59.05,8.59.03,17.18.03,25.76,0,.83.06,1.67,0,2.5-.34,4.38,2.12,4.56,5.94,3.85.48-.09,1.02-.99,1.15-1.59.21-1.04.14-2.13.14-3.21,0-12.41-.01-24.81.02-37.22,0-1.78.1-3.59.46-5.32,1.18-5.77,5.06-9.3,10.92-9.55,5.49-.24,11-.25,16.49,0,7.06.31,11.43,5.02,11.54,12.04.06,3.82-.02,7.63.03,11.45.04,3.27.32,3.6,3.4,3.62,7.17.05,14.34.03,21.51,0,.79,0,1.59-.24,2.63-.41-.25-1.11-.38-2.03-.67-2.9-3.18-9.63-6.39-19.24-9.57-28.87-.26-.79-.52-1.61-.58-2.43-.1-1.34.85-2.57,2.15-2.96,1.31-.4,2.45.01,3.15,1.08.64.98,1.04,2.13,1.43,3.25,2.19,6.31,4.34,12.64,6.53,18.94.31.89.67,1.83,1.26,2.53.37.44,1.34.76,1.85.58.48-.17,1.03-1.09.98-1.63-.15-1.41-.52-2.81-.95-4.17-1.97-6.26-3.99-12.5-5.98-18.75-.8-2.5-1.56-5.01-2.35-7.51-.29-.91-.57-1.83-.93-2.71-2.46-6.07-4.98-7.91-11.36-7.72-3.1.09-6.22.09-9.32,0-2.7-.08-5.21.39-7.55,1.79-.71.42-1.5.77-2.3.97-1.56.38-3.03-.3-3.64-1.58-.61-1.29-.08-2.41.82-3.23,2.15-1.95,4.56-3.58,7.58-3.68,6.55-.22,13.1-.88,19.64,0,4.12.55,7.49,2.44,9.64,6.08.9,1.53,1.61,3.21,2.16,4.9,3.26,9.85,6.46,19.72,9.67,29.59.44,1.36.85,2.73,1.19,4.12,1.15,4.81-.45,7.8-5.07,9.55-.55.21-1.1.38-1.91.65.25,1,.45,1.88.7,2.75.45,1.56.34,3.05-.33,4.53-.87,1.92-2.25,3.04-4.42,3.07-1.43.02-2.87-.03-4.3.08-2.16.16-2.69.71-2.86,2.86-.07.83-.03,1.67-.03,2.5,0,4.29.07,8.59-.04,12.88-.05,2.01-.29,4.05-.72,6.02-.73,3.3-4.16,6.11-7.3,5.72-4.03-.49-8.02-.29-12.06-.05-3.75.22-6.94-2.51-7.73-6.17-.45-2.08-.64-4.24-.74-6.38-.12-2.62,0-5.25-.05-7.87-.01-.78-.23-1.56-.91-2.41-.17.71-.47,1.42-.48,2.14-.05,3.94-.02,7.87-.04,11.81,0,1.07.06,2.17-.14,3.21-.61,3.03-2.21,5.3-5.42,5.95-3.78.76-7.63.76-11.4.08-4.06-.73-5.9-3.06-6.01-7.27-.11-4.17-.03-8.35-.05-12.52,0-.95-.04-1.91-.2-2.84-.06-.36-.5-.65-.83-1.04Zm7.56,5.85h-.02c0,2.5-.02,5,0,7.51.03,4.64.24,4.84,4.84,4.89q5.19.05,5.2-5.08c0-5-.05-10.01.03-15.01.05-3.05,1.18-4.25,4.18-4.82.23-.04.48-.04.71-.08,3-.46,3.5-.87,3.54-3.8.09-5.6.11-11.2,0-16.8-.08-3.95-2.04-5.78-6.11-5.87-3.58-.08-7.16-.03-10.74-.01-1.55,0-3.12-.06-4.65.12-2.87.34-4.76,2.13-4.81,4.86-.12,6.19-.09,12.39,0,18.59.03,2.1.67,2.57,2.9,2.83.35.04.72.01,1.07.05,2.95.31,3.76,1.09,3.85,4.04.08,2.86.02,5.72.02,8.58Zm29.35.26h.02c0-3.21.07-6.42-.02-9.62-.06-2.05-1.51-2.91-3.42-2.21-1.24.45-1.43,1.51-1.43,2.61-.01,5.58-.05,11.17.05,16.75.02,1.13.42,2.37,1,3.34.31.52,1.42.85,2.12.78.53-.05,1.21-.78,1.43-1.35.29-.74.24-1.63.25-2.46.03-2.61,0-5.23,0-7.84Zm6.52-.69s-.01,0-.02,0c0,2.62-.02,5.24.01,7.86.01.95.07,1.91.28,2.83.22,1,.87,1.74,1.99,1.73,1.06,0,1.81-.62,2.15-1.6.19-.54.25-1.16.24-1.74-.11-5.12-.25-10.23-.38-15.35-.02-.95.03-1.92-.11-2.85-.19-1.33-1.17-2.09-2.47-2.09-1.09,0-1.64.61-1.68,2.27-.07,2.98-.02,5.96-.02,8.94Z"/>
      <path class="cls-1" d="m71.72,13.92C70.86,6.23,79.21,0,85.54,0c7.8,0,14.33,6.19,14.19,13.98-.16,9.23-7.77,13.85-13.9,13.98-7.66.17-14.67-6.93-14.11-14.04Zm6.51.21c.05,4.14,3.38,7.71,7.3,7.83,3.58.11,7.8-4.21,7.76-7.95-.04-4.19-3.59-7.56-7.9-7.51-4.33.05-7.21,3.12-7.16,7.62Z"/>
      <path class="cls-1" d="m41.78,13.93c.6,9-7.52,14.28-13.81,14.11-7.54-.21-13.39-6.4-13.72-14.08C13.93,6.68,20.35.25,28.24.28c8.15.03,14.42,7.21,13.54,13.65Zm-13.67,7.59c4.2,0,7.68-3.27,7.76-7.3.08-4.29-3.3-7.69-7.67-7.72-4.49-.03-7.21,2.84-7.38,7.39-.17,4.45,3.93,7.92,7.3,7.63Z"/>
      <path class="cls-1" d="m69.61,49.28c-.45,6.43-4.34,10.8-11.12,11.38-5.68.49-11.83-5.5-11.68-11.24.18-6.59,5.31-10.93,11.26-11.23,5.6-.28,11.41,5.47,11.54,11.09Zm-11.27-4.75c-2.67.1-5.06,2.51-4.99,5.03.08,2.72,2.65,5.01,5.48,4.88,2.79-.13,4.43-2,4.34-4.95-.09-3.07-2.04-5.06-4.83-4.96Z"/>
    </g>
  </g>
</svg>