<?xml version="1.0" encoding="UTF-8"?>
<svg id="Layer_2" data-name="Layer 2" xmlns="http://www.w3.org/2000/svg" viewBox="0 0 126.62 126.18">
  <defs>
    <style>
      .cls-1 {
        fill: #29abe2;
      }
    </style>
  </defs>
  <g id="Layer_1-2" data-name="Layer 1">
    <path class="cls-1" d="m108.22,45.25c.58.5.98.96,1.47,1.26,5.99,3.67,10.51,8.98,15.42,13.85,2.04,2.02,2.02,3.09,0,5.15-3.68,3.75-7.37,7.49-11.21,11.08-1.63,1.53-3.64,2.67-5.67,4.13.18.87.27,1.8.57,2.66,1.53,4.33,2.13,8.79,2.05,13.36-.05,3.1.05,6.21-.04,9.3-.09,3.15-.96,4.06-4.14,4.07-6.08.02-12.2.43-18.23-.72-2.33-.45-4.61-1.16-7.06-1.79-.52.68-.98,1.35-1.5,1.97-2.24,2.63-4.41,5.32-6.76,7.84-2.44,2.62-5.02,5.11-7.61,7.58-1.66,1.58-2.11,1.55-4.03.23-.49-.34-.99-.69-1.4-1.11-4.77-4.84-10.03-9.24-13.59-15.16-.24-.4-.6-.72-.97-1.16-.6.08-1.21.05-1.75.24-5.15,1.84-10.49,2.19-15.89,2.11-2.63-.04-5.26.06-7.89-.05-3.05-.13-3.78-.86-3.81-3.93-.06-4.89-.2-9.79.09-14.67.17-2.82,1.1-5.59,1.71-8.38.15-.69.4-1.35.64-2.15-.43-.44-.77-.97-1.25-1.25-3.76-2.18-6.93-5.06-9.95-8.13-2.01-2.04-4.11-4-6.04-6.11-1.86-2.03-1.82-2.82.16-4.82,3.52-3.57,7.02-7.17,10.7-10.57,1.82-1.68,4.02-2.95,6.33-4.61-.21-.88-.37-1.9-.69-2.88-1.18-3.66-1.81-7.39-1.74-11.26.07-3.7-.02-7.4.03-11.09.05-3.24.71-3.99,3.89-4.4,1.29-.17,2.62-.13,3.93-.07,3.1.13,6.19.43,9.29.48,3.37.05,6.65.4,9.84,1.64,2.2.86,2.39.6,3.82-1.29,1.72-2.28,3.48-4.54,5.42-6.62,2.69-2.88,5.52-5.62,8.36-8.35,2.08-1.99,3.26-2.16,5.22-.21,4.56,4.54,9.64,8.6,13.12,14.13.32.5.68.98,1,1.49.65,1.03,1.56,1.55,2.73,1.09,6.32-2.5,12.95-1.75,19.5-1.87,1.79-.03,3.59-.06,5.38.05,2.07.13,2.73.78,3.05,2.81.11.7.11,1.43.11,2.14.01,3.7.23,7.41-.06,11.09-.24,3.19-1.03,6.33-1.63,9.49-.22,1.15-.59,2.27-.91,3.45Zm-25.81-1.28c1.13-.09,1.72-.04,2.25-.2,3.23-1.04,6.56-1.19,9.9-1.04,2.25.1,4.5.34,6.75.54,1.62.14,2.18-.14,2.76-1.6.26-.66.39-1.37.59-2.06,1.59-5.47,1.16-11.09,1.07-16.66-.03-1.79-.55-2.2-2.52-2.24-3.45-.07-6.93-.24-10.36.07-2.7.24-5.37,1.04-8,1.77-1.6.44-1.85,1.05-1.64,2.66.1.71.27,1.4.43,2.1.88,3.65.88,7.3,0,10.96-.41,1.72-.75,3.46-1.23,5.72Zm-38.02.07c-.27-1.22-.36-1.93-.57-2.59-.9-2.87-1.31-5.8-1.13-8.8.14-2.25.39-4.49.62-6.73.22-2.12-.04-3-1.63-3.47-2.5-.74-5.05-1.48-7.63-1.71-3.19-.29-6.43-.1-9.65-.04-2.74.05-3.14.42-3.19,3.09-.06,3.57-.12,7.14.08,10.7.12,2.12.59,4.24,1.12,6.3.65,2.48,1.23,2.68,3.89,2.36,5.34-.64,10.68-.98,15.92.73.52.17,1.12.09,2.16.16Zm38.01,38.09c.15.88.19,1.46.35,2,1.47,4.86,2.05,9.76.87,14.77-.16.69-.25,1.4-.39,2.1-.26,1.23.13,2.17,1.35,2.54,1.93.57,3.88,1.35,5.85,1.46,4.16.24,8.34.16,12.51.1,2.29-.04,2.76-.5,2.81-2.74.08-3.45.22-6.92-.08-10.34-.27-3.15-.63-6.38-2.62-9.18-3.37.27-6.68.83-9.97.72-3.41-.11-6.8-.88-10.69-1.42Zm-37.97-.15c-.73.05-1.2,0-1.62.12-5.72,1.72-11.47,2.14-17.33.7-1.91-.47-2.23-.17-2.85,1.71-2.15,6.63-1.54,13.42-1.14,20.2,0,.09.15.17.24.26.21.11.42.31.62.31,4.54-.05,9.09,0,13.62-.25,1.99-.11,3.95-.79,5.9-1.31,1.03-.28,1.53-1.11,1.51-2.18-.01-.71-.05-1.44-.18-2.13-.98-5.13-.78-10.2.81-15.2.2-.64.25-1.32.41-2.23Zm76.63-18.84c-2.56-3.28-5.23-5.65-7.78-8.1-1.53-1.47-3.28-2.74-5.06-3.92-2.21-1.47-2.72-1.34-4.4.84-2.87,3.73-6.38,6.7-10.48,9.01-1.1.62-2.18,1.28-3.69,2.16,6.69,3.12,11.61,7.69,15.99,13.3,6.46-2.94,10.14-8.66,15.41-13.28Zm-84.15-.04c-1.24-.77-1.81-1.18-2.43-1.49-3.87-1.99-7.12-4.75-10.01-7.97-.64-.71-1.22-1.46-1.85-2.18-1.37-1.56-1.85-1.68-3.66-.66-1.03.58-2.11,1.19-2.95,2.01-3.32,3.24-6.56,6.56-9.82,9.87-.13.13-.07.45-.15,1.09,4.74,4.18,8.53,9.84,15.34,12.57,3.62-6.01,9-9.84,15.51-13.25Zm13,41.91c.75,1.43,1.13,2.62,1.88,3.47,3.15,3.56,6.36,7.07,9.68,10.48,1.39,1.43,2.11,1.34,3.66-.11,1.91-1.79,3.79-3.63,5.57-5.55,1.61-1.74,3.21-3.52,4.56-5.46,1.54-2.21,1.34-2.75-.68-4.45-4.12-3.48-7.89-7.25-10.24-12.22-.21-.44-.71-.75-1.31-1.36-2.97,6.37-7.16,11.3-13.12,15.21Zm13.05-69.11c.69-.48.96-.57,1.06-.75,2.75-4.93,6.03-9.4,10.78-12.63.29-.2.53-.48.77-.74.74-.8.82-1.68.29-2.62-.23-.41-.48-.82-.74-1.22-3.02-4.47-6.93-8.13-10.9-11.71-.23-.2-.66-.18-1.25-.32-4.54,4.63-9.93,8.62-12.91,14.97,5.32,4.23,9.83,8.89,12.91,15.02Zm6.95,29.72c1.62,1.77,3.1,3.31,4.5,4.91,4.76,5.42,10.97,7.85,17.96,8.53,2.68.26,5.35-.06,7.87-1.3-5.84-9.9-19.66-14.02-30.33-12.14Zm-43.45,12.63c2.39.34,4.38.95,6.33.85,5.64-.3,11.07-1.42,15.71-5.03,2.68-2.09,6.5-5.78,7.87-8.03-7.25-4-24.63,2.85-29.92,12.22Zm40.01-22.49c10.31-6.05,15.33-20.46,11.48-29.35-8.29,3.97-14.51,18.67-11.48,29.35Zm3.73,4.81c2.59.04,5.17.16,7.75.09,8.77-.24,15.82-4.05,21.48-10.59.4-.46.47-1.2.73-1.9-3.35-1.35-6.55-1.18-9.76-.77-8.48,1.1-14.53,6.23-20.11,12.12-.12.13-.05.44-.09,1.04Zm-12.99-.3c-2.71-2.63-5.07-4.97-7.5-7.25-.77-.73-1.67-1.35-2.58-1.91-5.05-3.09-10.62-4.12-16.47-3.95-1.43.04-2.83.21-3.94,1.24,5.1,9.29,17.36,13.69,30.48,11.86Zm8.91,9.54c-1.74,13.18,4.39,27.92,12.15,29.55.26-.89.58-1.78.75-2.7.16-.81.19-1.65.21-2.48.28-10.44-4.79-18.03-13.12-24.37Zm-17.55,29.89c.73-.33,1.55-.52,2.13-1,4.26-3.63,7.37-8.07,8.95-13.46,1.4-4.75,1.07-9.64.87-14.51,0-.17-.28-.33-.43-.5-9.44,5.85-15.07,20.03-11.52,29.47Zm.16-73.36c-4.36,7.83,2.46,25.06,11.51,29.1,2.38-12.89-3.55-25.15-11.51-29.1Z"/>
  </g>
</svg>