<?xml version="1.0" encoding="UTF-8"?>
<svg id="Layer_2" data-name="Layer 2" xmlns="http://www.w3.org/2000/svg" viewBox="0 0 127.04 116.27">
  <defs>
    <style>
      .cls-1 {
        fill: #29abe2;
      }
    </style>
  </defs>
  <g id="Layer_1-2" data-name="Layer 1">
    <g>
      <path class="cls-1" d="m109.64,116.27c-3.4-2.38-5.37-4.94-7.7-7.08-2.27-2.08-4.15-4.59-6.84-6.37-2.78,1.85-4.71,4.48-7.09,6.61-2.28,2.03-4.03,4.65-7.09,6.39-.25-1.03-.57-1.77-.59-2.52-.07-2.62.04-5.25-.06-7.87-.08-2.02-.38-4.03-.59-6.04-.14-1.27-.89-1.91-2.14-1.96-1.07-.05-2.15-.05-3.22-.05-22.7,0-45.4,0-68.1,0-1.19,0-2.4.03-3.58-.09-1.89-.2-2.42-.8-2.59-2.76-.08-.95-.04-1.91-.04-2.86,0-28.74,0-57.48,0-86.22,0-.83-.03-1.67.02-2.5C.18.49.53.16,3.09.03c.83-.04,1.67-.02,2.51-.02,38.59,0,77.18,0,115.77,0,5.9,0,5.67-.14,5.67,5.71,0,28.62,0,57.24,0,85.86,0,1.07.04,2.15-.04,3.22-.15,2.03-.56,2.5-2.66,2.55-3.34.09-6.69.03-10.04.03-4.29.01-4.39.11-4.42,4.42-.02,3.34,0,6.68-.03,10.02,0,1.17-.11,2.33-.22,4.46ZM63.55,4.42c-17.56,0-35.12,0-52.68,0-.96,0-1.91-.03-2.87.02-2.45.13-2.76.47-2.89,3.04-.02.48-.01.95-.01,1.43,0,26.23,0,52.47,0,78.7,0,4.7.02,4.72,4.82,4.72,21.74,0,43.49,0,65.23,0,.72,0,1.44.02,2.15-.03,2.38-.17,2.8-.61,2.97-3.08.03-.48-.01-.96.03-1.43.37-4.17-.62-7.72-3.17-11.3-4.39-6.16-4.81-13.16-1.62-20.05,5.86-12.68,21.87-16.05,33.01-7.61,8.45,6.4,10.53,20.09,4.21,28.16-.59.75-1.17,1.53-1.6,2.37-.48.94-1.06,1.95-1.12,2.96-.16,2.61-.14,5.24-.04,7.86.06,1.59.58,2,2.29,2.11,1.55.09,3.1.04,4.66.04,5.01,0,5.02-.01,5.02-4.87,0-25.88,0-51.75,0-77.63,0-5.4-.02-5.41-5.34-5.41-17.68,0-35.36,0-53.04,0Zm15.37,60.78c-.82,9.45,8.87,16.59,16.3,16.42,9.87-.22,16.33-7.76,16.09-16.88-.22-8.54-7.61-16.04-16.05-15.94-9.24.11-17.32,8.58-16.34,16.4Zm5.91,39.09c.27.08.53.17.8.25.53-.45,1.09-.88,1.59-1.37,1.53-1.5,3.03-3.04,4.57-4.53,2.93-2.86,3.21-2.86,6.02-.08,1.78,1.76,3.53,3.56,5.35,5.27.45.42,1.12.6,1.7.89.23-.48.42-.69.42-.9.03-5.83.06-11.66.03-17.5,0-.51-.44-1.01-.65-1.45-3.37.6-6.53,1.6-9.68,1.6-3.22,0-6.43-1.01-10.14-1.66-.06,6.76-.07,13.11,0,19.47Z"/>
      <path class="cls-1" d="m31.02,51.36c.23-1.02.48-1.67.51-2.33.07-1.67-.05-3.34.06-5,.14-2.15-.69-3.63-2.55-4.69-1.77-1.02-3.29-2.34-4.25-4.23-1.46-2.87-1.23-5.5.85-7.97.61-.72,1.29-1.44,2.06-1.97,1.85-1.27,3.75-2.23,4.42-4.81.46-1.78,3.16-1.7,3.87.14.84,2.19,2.41,3.42,4.24,4.6,2.79,1.81,4.16,4.52,4.58,7.74.23,1.75-.42,2.69-1.83,2.94-1.48.26-2.41-.29-2.99-1.86-.6-1.62-.51-3.62-2.84-4.53-.17.68-.39,1.29-.45,1.92-.08.83.07,1.68-.04,2.5-.55,3.95.75,6.89,4.27,8.98,3.45,2.04,4.53,8.61.36,11.74-.76.57-1.41,1.35-2.25,1.73-1.41.64-2.28,1.59-2.79,3.05-.22.62-.78,1.21-1.34,1.59-1.01.7-2.49.3-2.88-1.11-.58-2.13-2.11-3.08-3.78-4-2.72-1.49-3.96-4.04-4.9-6.78-.22-.65-.25-1.42-.14-2.1.18-1.14.88-1.98,2.06-2.19,1.27-.22,2.02.55,2.48,1.61.51,1.2.84,2.48,1.44,3.63.27.52,1.01.79,1.84,1.39Zm.32-22.01c-1.78-.05-2.16,1.08-2.27,2.21-.14,1.41.62,2.32,2.27,2.87v-5.09Zm5.66,17.01c-.36,1.88-.66,3.31.31,4.71,2.41-1.88,2.41-2.39-.31-4.71Z"/>
      <path class="cls-1" d="m77.05,31.62c-7.17,0-14.34.01-21.51-.01-1.07,0-2.2.01-3.17-.34-.67-.24-1.5-1.06-1.54-1.68-.04-.58.73-1.55,1.35-1.77,1.21-.42,2.55-.57,3.85-.58,5.02-.06,10.04-.03,15.05-.03,9.08,0,18.16,0,27.24,0,1.07,0,2.16,0,3.21.2,1.2.22,1.86,1.19,1.77,2.32-.09,1.13-.79,1.7-1.88,1.78-.95.07-1.91.09-2.86.09-7.17,0-14.34,0-21.51,0Z"/>
      <path class="cls-1" d="m45.54,71.71c-6.2,0-12.4,0-18.6,0-1.07,0-2.16.02-3.21-.13-1.57-.22-2.49-1.12-2.43-2.16.05-1.02,1-1.87,2.55-2.08,1.06-.14,2.14-.12,3.21-.12,9.06,0,18.12,0,27.19,0,3.7,0,7.39-.01,11.09.02.95,0,1.91.07,2.83.29.98.23,1.75.87,1.7,2-.05,1.1-.84,1.74-1.81,1.93-1.04.21-2.13.24-3.2.24-6.44.02-12.88,0-19.32.01Z"/>
      <path class="cls-1" d="m64.27,44.5c-3.1,0-6.2.05-9.3-.03-1.05-.02-2.15-.19-3.1-.59-.52-.22-1.07-1.08-1.06-1.65,0-.56.56-1.33,1.1-1.63.68-.39,1.58-.55,2.39-.55,6.92-.04,13.84-.02,20.75,0,.47,0,.96.06,1.41.18,1.02.27,1.69.89,1.66,2.02-.03,1.1-.68,1.79-1.7,2.02-.8.18-1.65.22-2.48.22-3.22.02-6.44,0-9.66,0Z"/>
      <path class="cls-1" d="m61.24,57.33c-2.39,0-4.78.07-7.17-.02-2.16-.08-3.42-1-3.52-2.34-.12-1.45,1.27-2.62,3.59-2.66,4.66-.09,9.32-.04,13.98-.01.7,0,1.44.14,2.1.38,1.08.39,1.89,1.11,1.74,2.39-.15,1.21-.96,1.9-2.12,2.12-.7.13-1.42.16-2.14.17-2.15.02-4.3,0-6.45,0,0,0,0-.02,0-.03Z"/>
      <path class="cls-1" d="m55.08,88.88c-.7-.08-1.67-.08-2.58-.32-1.11-.29-1.97-1.04-1.96-2.26,0-1.22.87-2.12,1.97-2.24,1.74-.19,3.55-.16,5.29.08,1.14.15,1.79,1.14,1.69,2.39-.09,1.24-.84,1.94-2.02,2.16-.7.13-1.42.12-2.39.19Z"/>
      <path class="cls-1" d="m118.55,27.91c-.1.8-.09,1.77-.36,2.66-.52,1.67-2.46,2.01-3.66.71-1.3-1.4-1.66-5.52-.41-7,.53-.62,1.55-1.07,2.38-1.13,1.04-.08,1.67.8,1.83,1.82.14.92.15,1.87.23,2.95Z"/>
      <path class="cls-1" d="m13.72,25.73c-.21.92-.32,1.75-.59,2.51-.38,1.07-1.12,1.79-2.36,1.77-1.18-.01-2.18-.78-2.52-2.09-.42-1.63-.33-3.27.38-4.82.42-.93,1.14-1.48,2.2-1.49,1.07,0,1.81.55,2.18,1.5.33.86.5,1.79.72,2.62Z"/>
      <path class="cls-1" d="m25.23,88.95c-.81-.22-2.03-.34-3.01-.88-1.49-.82-1.45-2.55,0-3.43,1.94-1.18,4.09-1.23,6.12-.41.71.29,1.44,1.31,1.56,2.09.19,1.16-.76,1.93-1.86,2.24-.78.22-1.62.24-2.81.39Z"/>
      <path class="cls-1" d="m40.53,88.92c-.96-.13-1.8-.16-2.59-.36-.97-.25-1.74-.81-1.86-1.91-.12-1.08.45-1.89,1.36-2.29,2.06-.91,4.2-.95,6.14.22.57.34,1.07,1.38,1,2.03-.07.67-.76,1.5-1.4,1.83-.8.4-1.83.36-2.66.48Z"/>
      <path class="cls-1" d="m8.52,71.21c.06-.83.06-1.67.19-2.48.16-1.02.76-1.76,1.82-1.91,1.24-.18,1.99.51,2.46,1.61.8,1.87.5,3.72-.05,5.56-.29.99-.88,1.72-2.01,1.65-1.22-.07-1.98-.79-2.21-1.95-.16-.81-.14-1.65-.2-2.48Z"/>
      <path class="cls-1" d="m11.39,88.82c-2.03-.02-2.85-.44-3.15-1.63-.42-1.66.65-4.42,1.92-4.97.11-.05.22-.1.34-.11,1.84-.1,2.55,1.49,3.63,2.49.83.77,1.26,1.78.68,2.88-.73,1.38-2.11,1.32-3.41,1.34Z"/>
      <path class="cls-1" d="m8.5,56.1c.1-.94,0-1.97.37-2.8.28-.65,1.09-1.38,1.74-1.46.64-.08,1.73.45,2.01,1.01.84,1.72,1.23,3.61.57,5.53-.46,1.35-1.39,1.95-2.71,1.76-1.3-.19-1.78-1.06-1.84-2.25-.03-.59,0-1.19,0-1.78-.04,0-.08,0-.12,0Z"/>
      <path class="cls-1" d="m13.16,41.06c-.12,1.02-.03,2.04-.4,2.85-.28.63-1.11,1.36-1.74,1.4-.64.04-1.67-.57-1.92-1.16-.87-1.99-.79-4.15-.12-6.18.19-.57,1.23-1.21,1.87-1.2.64,0,1.57.66,1.83,1.27.4.93.35,2.05.47,3.02Z"/>
      <path class="cls-1" d="m40.53,13.13c-.92-.21-2.05-.25-2.91-.75-.57-.33-1.01-1.32-1.02-2.01,0-.5.78-1.4,1.27-1.44,1.96-.17,3.96-.21,5.92,0,.5.05,1.23,1.18,1.23,1.8,0,.64-.64,1.58-1.25,1.85-.92.42-2.05.37-3.24.54Z"/>
      <path class="cls-1" d="m101.18,13.08c-.89-.11-1.84-.13-2.74-.36-.99-.25-1.62-.99-1.66-2.04-.04-1.14.75-1.82,1.72-1.91,1.74-.15,3.52-.14,5.26.01,1.01.09,1.65.88,1.6,1.99-.04,1.08-.68,1.75-1.68,2-.79.19-1.63.21-2.5.31Z"/>
      <path class="cls-1" d="m71.05,13.07c-.83-.1-1.68-.12-2.48-.32-1.01-.25-1.68-.91-1.68-2.02,0-1.12.68-1.87,1.7-1.96,1.64-.15,3.32-.14,4.96,0,1.02.09,1.69.85,1.67,1.98-.03,1.1-.69,1.77-1.7,2.01-.8.19-1.64.21-2.47.3Z"/>
      <path class="cls-1" d="m11.97,8.54c.28.04.88.05,1.43.21,1.46.42,2.02,1.67,1.36,3.02-.2.41-.5.8-.8,1.15-1.44,1.64-3.22,2.33-4.26,1.58-1.5-1.09-1.16-2.72-.98-4.2.17-1.37.96-1.77,3.26-1.76Z"/>
      <path class="cls-1" d="m25.92,8.46c.9.1,1.73.11,2.52.29,1.02.23,1.62.92,1.61,2.01-.01,1.09-.63,1.91-1.64,1.99-1.74.13-3.51.13-5.24-.08-.98-.12-1.7-1.06-1.42-2.09.19-.68.83-1.44,1.46-1.73.82-.36,1.83-.28,2.7-.38Z"/>
      <path class="cls-1" d="m55.9,8.45c.91.1,1.92,0,2.74.37.64.28,1.28,1.05,1.47,1.72.28,1.01-.37,2.03-1.36,2.12-1.84.18-3.73.15-5.56-.09-.53-.07-1.17-1.11-1.32-1.8-.22-1.05.54-1.77,1.55-2.01.79-.19,1.63-.21,2.48-.31Z"/>
      <path class="cls-1" d="m115.81,8.48c.47.21,1.58.43,2.25,1.09.82.82.44,3.32-.37,4.33-.68.85-1.62,1.15-2.51.55-1.05-.72-2.11-1.55-2.87-2.55-1.17-1.53-.44-2.95,1.52-3.27.46-.08.94-.07,1.98-.14Z"/>
      <path class="cls-1" d="m86.1,8.41c1.04.16,2.04.14,2.89.49.55.23,1.22,1.01,1.21,1.54-.01.7-.47,1.78-1.03,2.02-2.02.88-4.2.85-6.23-.05-.49-.22-.95-1.14-.93-1.73.02-.58.53-1.43,1.04-1.65.95-.41,2.06-.44,3.04-.62Z"/>
      <path class="cls-1" d="m68.92,88.78c-1.86.02-3.33-1.03-3.37-2.41-.04-1.29,1.27-2.43,2.89-2.51,1.96-.1,3.63,1.14,3.53,2.62-.09,1.36-1.33,2.29-3.05,2.31Z"/>
      <path class="cls-1" d="m118.44,43.54c-.06.29-.1.9-.32,1.43-.41,1.02-1.7,1.58-2.66,1.25-1.16-.39-2.09-2.11-1.91-3.52.16-1.21,1.11-2.23,2.28-2.44,1.58-.28,2.63.91,2.61,3.28Z"/>
    </g>
  </g>
</svg>