<?xml version="1.0" encoding="utf-8"?>
<!-- Generator: Adobe Illustrator 27.3.1, SVG Export Plug-In . SVG Version: 6.00 Build 0)  -->
<svg version="1.1" id="Layer_2_00000150782160744572010230000008560106029070022580_"
	 xmlns="http://www.w3.org/2000/svg" xmlns:xlink="http://www.w3.org/1999/xlink" x="0px" y="0px" viewBox="0 0 676.6 237.4"
	 style="enable-background:new 0 0 676.6 237.4;" xml:space="preserve">
<style type="text/css">
	.st0{fill:#FFFFFF;}
	.st1{fill:#FFFFFF;stroke:#FFFFFF;stroke-miterlimit:10;}
	.st2{fill:#FFFFFF;stroke:#FFFFFF;stroke-width:5;stroke-miterlimit:10;}
	.st3{font-family:'QucinerRegular';}
	.st4{font-size:49.8136px;}
	.st5{letter-spacing:1;}
	.st6{letter-spacing:-14;}
	.st7{letter-spacing:3;}
	.st8{letter-spacing:2;}
	.st9{letter-spacing:6;}
</style>
<g id="Tours">
	<g>
		<g>
			<path class="st0" d="M333.5,2.7l-60.1,110.4h-19.4L193.8,2.7h21.1l49.3,90.7L314,2.7H333.5z"/>
			<polygon class="st0" points="405.7,112.8 356,22.1 306.7,112.8 285.6,112.8 345.8,2.4 365.2,2.4 414.8,93.5 421.3,81.8 
				464.9,2.2 484.5,2.2 429.8,102.8 424.3,112.8 			"/>
		</g>
		<g>
			<polygon class="st0" points="198,33.7 207.6,50.9 57.1,50.9 38.3,33.7 			"/>
			<polygon class="st0" points="90.4,81.6 71.7,64.3 215,64.3 224.6,81.6 			"/>
			<polygon class="st0" points="23.7,20.2 4.6,2.7 180.9,2.7 190.6,20.2 			"/>
			<polygon class="st0" points="232,95 241.8,112.7 124.2,112.7 105,95 			"/>
		</g>
		<g>
			<polygon class="st0" points="478.6,33.7 469.1,50.9 619.6,50.9 638.3,33.7 			"/>
			<polygon class="st0" points="586.2,81.6 605,64.3 461.6,64.3 452,81.6 			"/>
			<polygon class="st0" points="652.9,20.2 672,2.7 495.8,2.7 486.1,20.2 			"/>
			<polygon class="st0" points="444.6,95 434.8,112.7 552.4,112.7 571.6,95 			"/>
		</g>
	</g>
</g>
<g>
	<g>
		<path class="st1" d="M194.7,229.2v-16.9H188v-3.9h18.2v3.9h-6.7v16.9H194.7z"/>
		<path class="st1" d="M216.1,229.4c-1.7,0-3.2-0.4-4.5-1.1c-1.3-0.7-2.4-1.7-3.1-2.9c-0.8-1.2-1.1-2.7-1.1-4.3c0-1.6,0.4-3,1.1-4.3
			c0.8-1.2,1.8-2.2,3.1-2.9s2.8-1.1,4.5-1.1c1.7,0,3.2,0.4,4.6,1.1s2.4,1.7,3.1,2.9c0.8,1.2,1.1,2.7,1.1,4.3s-0.4,3-1.1,4.3
			c-0.8,1.2-1.8,2.2-3.1,2.9C219.3,229.1,217.8,229.4,216.1,229.4z M216.1,225.6c0.8,0,1.5-0.2,2.1-0.5c0.6-0.3,1.1-0.9,1.5-1.5
			c0.4-0.7,0.6-1.5,0.6-2.4c0-0.9-0.2-1.7-0.6-2.4c-0.4-0.7-0.9-1.2-1.5-1.5c-0.6-0.3-1.3-0.5-2.1-0.5s-1.5,0.2-2.1,0.5
			c-0.6,0.3-1.1,0.8-1.5,1.5c-0.4,0.7-0.6,1.5-0.6,2.4c0,0.9,0.2,1.7,0.6,2.4c0.4,0.7,0.9,1.2,1.5,1.5
			C214.6,225.4,215.3,225.6,216.1,225.6z"/>
		<path class="st1" d="M234.8,229.4c-1.4,0-2.5-0.3-3.6-0.8c-1-0.5-1.8-1.3-2.4-2.4c-0.6-1.1-0.9-2.4-0.9-4.1v-9.1h4.7v8.4
			c0,1.4,0.3,2.3,0.9,3s1.4,0.9,2.4,0.9c0.7,0,1.4-0.2,1.9-0.5c0.6-0.3,1-0.8,1.3-1.4s0.5-1.4,0.5-2.4v-8h4.6v16.1h-4.4v-4.4
			l0.8,1.3c-0.6,1.1-1.4,2-2.4,2.5C237.2,229.2,236,229.4,234.8,229.4z"/>
		<path class="st1" d="M248.5,229.2v-16.1h4.4v4.6l-0.6-1.3c0.5-1.1,1.2-2,2.3-2.6c1.1-0.6,2.3-0.9,3.8-0.9v4.3
			c-0.2,0-0.4-0.1-0.5-0.1c-0.2,0-0.3,0-0.5,0c-1.3,0-2.4,0.4-3.1,1.1c-0.8,0.7-1.2,1.9-1.2,3.4v7.6H248.5z"/>
		<path class="st1" d="M266.8,229.4c-1.4,0-2.7-0.2-3.9-0.5c-1.3-0.3-2.3-0.7-3-1.2l1.5-3.3c0.8,0.4,1.6,0.8,2.6,1.1
			c1,0.3,2,0.4,3,0.4c1.1,0,1.8-0.1,2.3-0.4c0.4-0.3,0.7-0.6,0.7-1.1c0-0.4-0.2-0.7-0.5-0.9c-0.3-0.2-0.8-0.3-1.4-0.4
			s-1.2-0.2-1.9-0.3c-0.7-0.1-1.4-0.2-2.1-0.4c-0.7-0.2-1.3-0.4-1.9-0.8c-0.6-0.3-1.1-0.8-1.4-1.4c-0.3-0.6-0.5-1.3-0.5-2.2
			c0-1,0.3-1.9,0.9-2.7s1.4-1.4,2.5-1.8c1.1-0.4,2.4-0.7,4-0.7c1.1,0,2.2,0.1,3.4,0.4c1.1,0.2,2.1,0.6,2.8,1l-1.6,3.3
			c-0.8-0.4-1.5-0.7-2.3-0.9c-0.8-0.2-1.5-0.3-2.3-0.3c-1.1,0-1.8,0.1-2.3,0.4s-0.7,0.6-0.7,1.1c0,0.4,0.2,0.7,0.5,0.9
			c0.4,0.2,0.8,0.4,1.4,0.5c0.6,0.1,1.2,0.2,1.9,0.3s1.4,0.2,2.1,0.4c0.7,0.2,1.3,0.4,1.9,0.8c0.6,0.3,1.1,0.8,1.4,1.4
			c0.3,0.6,0.5,1.3,0.5,2.2c0,1-0.3,1.8-0.9,2.6s-1.5,1.4-2.6,1.8C269.8,229.2,268.4,229.4,266.8,229.4z"/>
		<path class="st1" d="M292.6,229.6c-1.5,0-2.9-0.2-4.1-0.7c-1.2-0.5-2.2-1.2-2.8-2c-0.7-0.9-1-1.8-1-3c0-1,0.2-2,0.7-2.8
			c0.5-0.8,1.2-1.6,2.2-2.3s2.3-1.4,3.8-2.1c1.1-0.5,2-1,2.6-1.4c0.6-0.4,1.1-0.8,1.3-1.1c0.3-0.4,0.4-0.7,0.4-1.1
			c0-0.5-0.2-0.9-0.5-1.2c-0.3-0.3-0.9-0.5-1.5-0.5c-0.7,0-1.3,0.2-1.7,0.5c-0.4,0.4-0.6,0.8-0.6,1.4c0,0.3,0.1,0.6,0.2,0.9
			s0.4,0.6,0.7,1c0.3,0.4,0.8,0.9,1.4,1.4l11,10.2l-2.5,3l-12.2-11.3c-0.7-0.6-1.2-1.2-1.6-1.8c-0.4-0.6-0.7-1.1-0.9-1.7
			c-0.2-0.5-0.3-1.1-0.3-1.7c0-1,0.3-1.9,0.8-2.7c0.5-0.8,1.3-1.4,2.3-1.8c1-0.4,2.1-0.6,3.4-0.6c1.2,0,2.3,0.2,3.2,0.6
			c0.9,0.4,1.6,0.9,2.1,1.7s0.8,1.6,0.8,2.6c0,0.9-0.2,1.7-0.7,2.4s-1.1,1.4-2.1,2.1c-0.9,0.6-2.1,1.3-3.6,1.9
			c-1,0.5-1.8,0.9-2.4,1.3s-1,0.9-1.3,1.3c-0.3,0.4-0.4,0.9-0.4,1.5c0,0.5,0.1,0.9,0.4,1.3c0.3,0.4,0.7,0.7,1.3,0.9
			c0.6,0.2,1.2,0.3,2,0.3c1.2,0,2.3-0.3,3.3-0.8c1-0.6,1.9-1.4,2.6-2.5c0.7-1.1,1.2-2.5,1.5-4.1l3.7,1.1c-0.4,2-1.1,3.8-2.2,5.3
			c-1.1,1.5-2.4,2.6-4,3.5S294.5,229.6,292.6,229.6z"/>
		<path class="st1" d="M326.1,229.6c-1.6,0-3.1-0.3-4.5-0.8c-1.4-0.5-2.6-1.3-3.6-2.3c-1-1-1.8-2.1-2.4-3.4
			c-0.6-1.3-0.9-2.8-0.9-4.3s0.3-3,0.9-4.3c0.6-1.3,1.4-2.5,2.4-3.4s2.2-1.7,3.6-2.3c1.4-0.5,2.9-0.8,4.5-0.8c1.8,0,3.5,0.3,4.9,0.9
			c1.5,0.6,2.7,1.5,3.7,2.8l-3.1,2.9c-0.7-0.8-1.5-1.4-2.4-1.8c-0.9-0.4-1.8-0.6-2.9-0.6c-1,0-1.9,0.2-2.7,0.5
			c-0.8,0.3-1.5,0.8-2.1,1.4c-0.6,0.6-1.1,1.3-1.4,2.1s-0.5,1.7-0.5,2.7c0,1,0.2,1.9,0.5,2.7c0.3,0.8,0.8,1.5,1.4,2.1
			c0.6,0.6,1.3,1.1,2.1,1.4c0.8,0.3,1.7,0.5,2.7,0.5c1,0,2-0.2,2.9-0.6c0.9-0.4,1.7-1,2.4-1.9l3.1,2.9c-1,1.2-2.2,2.1-3.7,2.8
			C329.6,229.2,328,229.6,326.1,229.6z"/>
		<path class="st1" d="M345.3,229.4c-1.7,0-3.2-0.4-4.5-1.1c-1.3-0.7-2.4-1.7-3.1-2.9c-0.8-1.2-1.1-2.7-1.1-4.3c0-1.6,0.4-3,1.1-4.3
			c0.8-1.2,1.8-2.2,3.1-2.9s2.8-1.1,4.5-1.1c1.7,0,3.2,0.4,4.6,1.1c1.3,0.7,2.4,1.7,3.1,2.9c0.8,1.2,1.1,2.7,1.1,4.3s-0.4,3-1.1,4.3
			c-0.8,1.2-1.8,2.2-3.1,2.9C348.5,229.1,347,229.4,345.3,229.4z M345.3,225.6c0.8,0,1.5-0.2,2.1-0.5c0.6-0.3,1.1-0.9,1.5-1.5
			c0.4-0.7,0.6-1.5,0.6-2.4c0-0.9-0.2-1.7-0.6-2.4c-0.4-0.7-0.9-1.2-1.5-1.5c-0.6-0.3-1.3-0.5-2.1-0.5c-0.8,0-1.5,0.2-2.1,0.5
			c-0.6,0.3-1.1,0.8-1.5,1.5c-0.4,0.7-0.6,1.5-0.6,2.4c0,0.9,0.2,1.7,0.6,2.4c0.4,0.7,0.9,1.2,1.5,1.5
			C343.9,225.4,344.5,225.6,345.3,225.6z"/>
		<path class="st1" d="M367,212.9c1.3,0,2.4,0.3,3.4,0.8c1,0.5,1.8,1.3,2.4,2.3c0.6,1,0.9,2.4,0.9,4v9.2H369v-8.5
			c0-1.3-0.3-2.2-0.9-2.9c-0.6-0.6-1.4-0.9-2.4-0.9c-0.7,0-1.4,0.2-2,0.5c-0.6,0.3-1,0.8-1.4,1.4c-0.3,0.6-0.5,1.4-0.5,2.4v7.9h-4.7
			v-16.1h4.4v4.4l-0.8-1.3c0.6-1.1,1.4-1.9,2.5-2.5S365.6,212.9,367,212.9z"/>
		<path class="st1" d="M383.3,229.4c-1.4,0-2.7-0.2-3.9-0.5s-2.3-0.7-3-1.2l1.5-3.3c0.8,0.4,1.6,0.8,2.6,1.1s2,0.4,3,0.4
			c1.1,0,1.8-0.1,2.3-0.4c0.4-0.3,0.7-0.6,0.7-1.1c0-0.4-0.2-0.7-0.5-0.9c-0.3-0.2-0.8-0.3-1.4-0.4c-0.6-0.1-1.2-0.2-1.9-0.3
			c-0.7-0.1-1.4-0.2-2.1-0.4c-0.7-0.2-1.3-0.4-1.9-0.8c-0.6-0.3-1.1-0.8-1.4-1.4c-0.3-0.6-0.5-1.3-0.5-2.2c0-1,0.3-1.9,0.9-2.7
			s1.4-1.4,2.5-1.8c1.1-0.4,2.4-0.7,4-0.7c1.1,0,2.2,0.1,3.4,0.4c1.1,0.2,2.1,0.6,2.8,1l-1.6,3.3c-0.8-0.4-1.5-0.7-2.3-0.9
			c-0.8-0.2-1.5-0.3-2.3-0.3c-1.1,0-1.9,0.1-2.3,0.4c-0.5,0.3-0.7,0.6-0.7,1.1c0,0.4,0.2,0.7,0.5,0.9c0.4,0.2,0.8,0.4,1.4,0.5
			s1.2,0.2,1.9,0.3c0.7,0.1,1.4,0.2,2.1,0.4c0.7,0.2,1.3,0.4,1.9,0.8s1.1,0.8,1.4,1.4c0.3,0.6,0.5,1.3,0.5,2.2c0,1-0.3,1.8-0.9,2.6
			s-1.5,1.4-2.6,1.8S384.9,229.4,383.3,229.4z"/>
		<path class="st1" d="M400.5,229.4c-1.4,0-2.5-0.3-3.6-0.8s-1.8-1.3-2.4-2.4c-0.6-1.1-0.9-2.4-0.9-4.1v-9.1h4.7v8.4
			c0,1.4,0.3,2.3,0.8,3c0.6,0.6,1.4,0.9,2.4,0.9c0.7,0,1.4-0.2,1.9-0.5s1-0.8,1.3-1.4s0.5-1.4,0.5-2.4v-8h4.6v16.1h-4.4v-4.4
			l0.8,1.3c-0.6,1.1-1.4,2-2.4,2.5C402.8,229.2,401.7,229.4,400.5,229.4z"/>
		<path class="st1" d="M414.2,229.2v-22.1h4.7v22.1H414.2z"/>
		<path class="st1" d="M421.3,217.1v-3.6h11.1v3.6H421.3z M429.7,229.4c-1.9,0-3.4-0.5-4.4-1.4c-1.1-1-1.6-2.4-1.6-4.3v-14.1h4.7v14
			c0,0.7,0.2,1.2,0.5,1.6c0.3,0.4,0.8,0.6,1.4,0.6c0.8,0,1.4-0.2,1.9-0.6l1.2,3.3c-0.5,0.3-1,0.6-1.7,0.8
			C431.1,229.3,430.5,229.4,429.7,229.4z"/>
		<path class="st1" d="M441.1,229.4c-1.2,0-2.3-0.2-3.2-0.6c-0.9-0.4-1.6-1-2.1-1.7c-0.5-0.7-0.7-1.6-0.7-2.5c0-0.9,0.2-1.8,0.7-2.5
			c0.5-0.7,1.2-1.3,2.2-1.7c1-0.4,2.3-0.6,4-0.6h4.2v2.7h-3.8c-1.1,0-1.8,0.2-2.3,0.5c-0.4,0.4-0.6,0.8-0.6,1.3
			c0,0.6,0.2,1.1,0.7,1.4c0.5,0.3,1.1,0.5,1.9,0.5c0.8,0,1.5-0.2,2.1-0.5c0.6-0.4,1.1-0.9,1.3-1.6l0.7,2.2c-0.3,1-1,1.8-1.8,2.3
			S442.5,229.4,441.1,229.4z M446,229.2v-3.1l-0.3-0.7v-5.6c0-1-0.3-1.8-0.9-2.3s-1.5-0.8-2.8-0.8c-0.9,0-1.7,0.1-2.5,0.4
			c-0.8,0.3-1.5,0.6-2.1,1.1l-1.6-3.3c0.9-0.6,1.9-1.1,3.2-1.4s2.5-0.5,3.8-0.5c2.4,0,4.3,0.6,5.7,1.7c1.4,1.2,2,3,2,5.4v9.2H446z"
			/>
		<path class="st1" d="M464.3,212.9c1.3,0,2.4,0.3,3.4,0.8c1,0.5,1.8,1.3,2.4,2.3c0.6,1,0.9,2.4,0.9,4v9.2h-4.7v-8.5
			c0-1.3-0.3-2.2-0.9-2.9c-0.6-0.6-1.4-0.9-2.4-0.9c-0.7,0-1.4,0.2-2,0.5c-0.6,0.3-1,0.8-1.4,1.4c-0.3,0.6-0.5,1.4-0.5,2.4v7.9h-4.7
			v-16.1h4.4v4.4l-0.8-1.3c0.6-1.1,1.4-1.9,2.5-2.5S463,212.9,464.3,212.9z"/>
		<path class="st1" d="M473.3,217.1v-3.6h11.1v3.6H473.3z M481.7,229.4c-1.9,0-3.4-0.5-4.4-1.4c-1.1-1-1.6-2.4-1.6-4.3v-14.1h4.7v14
			c0,0.7,0.2,1.2,0.5,1.6c0.3,0.4,0.8,0.6,1.4,0.6c0.8,0,1.4-0.2,1.9-0.6l1.2,3.3c-0.5,0.3-1,0.6-1.7,0.8
			C483.2,229.3,482.5,229.4,481.7,229.4z"/>
		<path class="st1" d="M493.6,229.4c-1.4,0-2.7-0.2-3.9-0.5s-2.3-0.7-3-1.2l1.5-3.3c0.8,0.4,1.6,0.8,2.6,1.1s2,0.4,3,0.4
			c1.1,0,1.8-0.1,2.3-0.4c0.4-0.3,0.7-0.6,0.7-1.1c0-0.4-0.2-0.7-0.5-0.9c-0.3-0.2-0.8-0.3-1.4-0.4c-0.6-0.1-1.2-0.2-1.9-0.3
			c-0.7-0.1-1.4-0.2-2.1-0.4c-0.7-0.2-1.3-0.4-1.9-0.8c-0.6-0.3-1.1-0.8-1.4-1.4c-0.3-0.6-0.5-1.3-0.5-2.2c0-1,0.3-1.9,0.9-2.7
			s1.4-1.4,2.5-1.8c1.1-0.4,2.4-0.7,4-0.7c1.1,0,2.2,0.1,3.4,0.4c1.1,0.2,2.1,0.6,2.8,1l-1.6,3.3c-0.8-0.4-1.5-0.7-2.3-0.9
			c-0.8-0.2-1.5-0.3-2.3-0.3c-1.1,0-1.9,0.1-2.3,0.4c-0.5,0.3-0.7,0.6-0.7,1.1c0,0.4,0.2,0.7,0.5,0.9c0.4,0.2,0.8,0.4,1.4,0.5
			s1.2,0.2,1.9,0.3c0.7,0.1,1.4,0.2,2.1,0.4c0.7,0.2,1.3,0.4,1.9,0.8s1.1,0.8,1.4,1.4c0.3,0.6,0.5,1.3,0.5,2.2c0,1-0.3,1.8-0.9,2.6
			s-1.5,1.4-2.6,1.8S495.2,229.4,493.6,229.4z"/>
	</g>
</g>
<text transform="matrix(1 0 0 1 122.9432 184.9416)"><tspan x="0" y="0" class="st2 st3 st4 st5">WORLD</tspan><tspan x="252" y="0" class="st2 st3 st4 st6"> </tspan><tspan x="266.1" y="0" class="st2 st3 st4 st7">W</tspan><tspan x="328.1" y="0" class="st2 st3 st4 st8">ID</tspan><tspan x="393.5" y="0" class="st2 st3 st4 st9">E</tspan></text>
</svg>
