<?xml version="1.0" encoding="UTF-8"?>
<svg id="Layer_2" data-name="Layer 2" xmlns="http://www.w3.org/2000/svg" viewBox="0 0 120.44 113.73">
  <defs>
    <style>
      .cls-1 {
        fill: #29abe2;
      }
    </style>
  </defs>
  <g id="Layer_1-2" data-name="Layer 1">
    <g>
      <path class="cls-1" d="m106.29,29.22c-.65,0-.92-.08-1.12.01-5.01,2.32-10.3,2.8-15.75,2.65-6.22-.16-11.77-2.07-16.54-5.97-4.24-3.47-8.21-7.28-12.41-10.82-2.17-1.83-4.44-3.62-6.89-5.04-9.84-5.73-22.32-3.63-30.46,4.11-1.21,1.15-2.41,2.32-3.6,3.49-1,.98-2.22,1.34-3.6,1.29-1.27-.05-2.37-.4-3.04-1.55-.72-1.22-.33-2.43.52-3.3,2.23-2.32,4.45-4.67,6.94-6.69,1.93-1.56,4.16-2.82,6.42-3.9,9.24-4.4,18.73-4.68,28.13-.75,3,1.26,5.62,3.58,8.2,5.68,3.05,2.48,5.84,5.27,8.77,7.9,1.51,1.35,3.02,2.71,4.63,3.93,5.21,3.95,11.08,5.23,17.55,4.5,3.09-.34,6.25-.22,9.04-1.82,1.74-1,3.43-2.15,4.99-3.41,2.13-1.72,4.12-3.63,6.19-5.43.91-.79,1.89-1.49,3.21-1.29,2.18.33,3.52,2.28,2.77,4.5-.96,2.82-2.14,5.57-3.37,8.28-3.37,7.46-7.94,14.16-13.55,20.1-6.27,6.65-13.85,11.01-23.14,11.58-4.81.29-9.51-.81-13.9-2.88-3.57-1.68-7.09-3.46-10.59-5.27-4.52-2.34-9.38-3.65-14.37-4.24-5.97-.7-11.36,1.05-15.95,4.97-2.09,1.78-4.07,3.68-6.13,5.5-.62.55-1.28,1.11-2.02,1.44-1.36.61-3.25-.01-4.17-1.23-.87-1.15-.67-2.39.17-3.3,4.61-4.97,8.84-10.39,15.6-12.8,5.81-2.06,11.63-2.31,17.61-.85,6.1,1.49,11.68,4.19,17.21,7.03,3.19,1.64,6.39,3.23,9.92,4.05,8.23,1.91,15.41-.27,21.57-5.78,3.65-3.26,7.15-6.71,9.65-11,.64-1.09,1.55-2.09,1.52-3.71Z"/>
      <path class="cls-1" d="m0,63.37C0,48.82,0,34.27.01,19.73c0-1.31-.03-2.64.19-3.92.29-1.74,1.5-2.62,3.29-2.67,1.68-.05,2.77.56,3.16,2.28.4,1.72.55,3.53.56,5.3.04,16.81.02,33.63.02,50.44,0,11.69.02,23.37-.02,35.06,0,1.65-.16,3.34-.54,4.95-.44,1.86-1.7,2.67-3.35,2.57-1.94-.12-3.02-1.12-3.23-3.14-.12-1.18-.08-2.38-.08-3.57,0-14.55,0-29.1,0-43.64Z"/>
    </g>
  </g>
</svg>