<?xml version="1.0" encoding="UTF-8"?>
<svg id="Layer_2" data-name="Layer 2" xmlns="http://www.w3.org/2000/svg" viewBox="0 0 127.07 93.07">
  <defs>
    <style>
      .cls-1 {
        fill: #29abe2;
      }
    </style>
  </defs>
  <g id="Layer_1-2" data-name="Layer 1">
    <g>
      <path class="cls-1" d="m98.13,70.87c2.12,3.82,1.59,7.82,1.61,11.73.01,2.5.05,5.01-.05,7.51-.09,2.07-.9,2.97-2.36,2.96-1.44-.01-2.3-.93-2.48-2.94-.14-1.66-.08-3.34-.09-5.01-.01-2.62-.03-5.25-.01-7.87.02-2.68-1.09-4.6-3.64-5.58-2.9-1.11-5.78-2.28-8.73-3.24-2.35-.77-3.02-.43-4.52,1.66-.77,1.06-1.45,2.19-2.2,3.27-2.16,3.06-4.52,3.5-7.6,1.44-.39-.26-.78-.54-1.18-.78-.08-.05-.22.02-.58.08-.08.84-.23,1.75-.24,2.65-.03,3.82,0,7.63-.02,11.45,0,.95-.02,1.91-.14,2.85-.13,1.03-.7,1.79-1.8,1.93-1.07.14-2.07-.34-2.29-1.31-.39-1.71-.63-3.5-.61-5.25.03-3.45.29-6.9.41-10.35.02-.68-.14-1.36-.27-2.46-.85.58-1.39.96-1.95,1.32-2.72,1.8-5.18,1.43-7.2-1.15-.95-1.22-1.73-2.58-2.64-3.83-1.4-1.91-2.13-2.27-4.24-1.53-3.27,1.15-6.51,2.38-9.66,3.83-2.44,1.12-3.16,3.47-3.21,5.98-.07,3.46-.02,6.92-.05,10.38,0,.95-.04,1.91-.17,2.85-.13.92-.74,1.5-1.69,1.57-1.05.09-1.96-.31-2.25-1.36-.25-.9-.35-1.88-.32-2.82.16-5.23-.51-10.49.57-15.7.06-.28-.24-.62-.52-1.3-1.08.65-2.06,1.22-3.03,1.82-3.4,2.13-6.92,2.19-9.94-.39-1.93-1.65-3.52-1.62-5.44-.36-.6.39-1.27.67-1.89,1.03-1.66.97-2.62,2.34-2.71,4.34-.14,3.21-.39,6.42-.57,9.63-.06,1.07-.03,2.15-.11,3.22-.08,1.06-.62,1.8-1.76,1.91-1.13.11-2.07-.56-2.34-1.76-.18-.81-.19-1.66-.2-2.49-.02-3.1.07-6.21-.03-9.3-.16-4.94,2.22-8.11,6.65-9.96.64-.27,1.26-.6,2.23-1.07-.73-.62-1.22-1.05-1.72-1.45-1.02-.81-2.08-1.58-3.08-2.43-1.61-1.38-2.06-2.95-1.37-5.11.61-1.89.7-3.96.89-5.97.3-3.2.32-6.43.78-9.61,1.48-10.26,14.33-19.38,26.08-9.95,4.05,3.25,5.72,7.82,6.09,12.89.08,1.07.06,2.15.04,3.22-.06,3.24.1,6.44,1.13,9.55.83,2.5.05,4.43-2.04,5.93-1.11.8-2.21,1.61-3.06,2.88,3.66-1.35,7.39-2.55,10.97-4.09,4.05-1.75,6.15-5.51,5.93-9.66-.08-1.54-.73-2.68-1.71-3.8-2.13-2.45-3.84-5.16-4.93-8.25-.84-2.39-1.36-4.81-1.28-7.36.07-2.27-.28-4.44-.94-6.67-1.51-5.12-1.74-10.39-.13-15.53,2.06-6.59,6.82-10.54,13.37-12.21,2.63-.67,5.44-.76,8.17-.81,6.57-.11,13.15-.04,19.72-.04.72,0,1.44-.03,2.15.04,2.48.23,3.39,1.12,3.6,3.57.09,1.07.06,2.15.06,3.22,0,4.18-.02,8.35.02,12.53.03,3.71-.23,7.34-1.15,10.98-.66,2.62-.67,5.42-.83,8.15-.31,5.05-2.84,9.02-6.03,12.68-2.77,3.18-2.83,5.79-.32,9.25,1.75,2.42,3.86,4.16,6.82,4.86,1.62.39,3.18,1.02,4.76,1.58,1.32.46,2.58.31,3.84-.2,2.18-.87,2.72-2.6,1.35-4.55-.48-.68-1.11-1.24-1.68-1.86-2.04-2.19-3.16-4.82-3.26-7.75-.09-2.66-.5-5.17-1.52-7.65-1.41-3.41-.44-6.62,1.56-9.47,2.23-3.19,5.37-5.17,9.33-5.27,5.85-.14,11.71-.1,17.57-.02,2.5.03,3.08.69,3.16,3.3.09,2.98.42,6.03-.06,8.93-.74,4.55-1.9,9.04-2.68,13.6-.34,1.96-2.02,3.71-3.15,5.51-.44.7-1.13,1.25-1.54,1.95-.56.95-.36,1.94.6,2.48,1.02.58,2.16.98,3.27,1.4,1.67.63,3.44,1.06,5.04,1.84,2.81,1.36,4.35,3.64,4.35,6.84,0,4.65,0,9.3,0,13.96,0,.36,0,.72-.06,1.07-.22,1.43-.85,2.07-2.02,2.03-1.28-.04-1.97-.79-2.16-1.98-.13-.82-.14-1.66-.14-2.5-.01-3.22.01-6.44,0-9.66-.03-5.2-.32-5.59-5.1-7.18-.68-.23-1.36-.46-2.04-.67-3.99-1.24-7.4,1-7.87,5.19-.11.94-.07,1.91-.07,2.86,0,3.1.03,6.2-.02,9.3-.02,1.06-.16,2.14-.43,3.16-.27,1.02-1.08,1.54-2.18,1.47-1.11-.07-1.78-.73-1.97-1.76-.13-.68,0-1.41.01-2.12.06-3.93.16-7.87.17-11.8.01-3.4-2.22-5.17-5.07-6.51Zm-14.92-54.51c0-3.5.06-6.13-.02-8.75-.08-2.46-.6-3.1-2.91-3.12-7.29-.07-14.59-.24-21.87.06-7.17.3-12.54,4.7-13.57,11.11-.54,3.36-.65,7,.07,10.29.83,3.75,1.32,7.52,1.59,11.29.34,4.73,2.29,8.46,5.64,11.59,4.97,4.63,10.78,6.15,17.21,3.79,6.39-2.35,10.6-6.8,11.57-13.77.21-1.52.07-3.1.15-4.64.07-1.3-.06-2.71.37-3.89,1.76-4.82,1.98-9.79,1.74-13.94Zm33.89,23.02c-.09-.01-.17-.03-.26-.04,0-.95.04-1.91,0-2.85-.07-1.27-.78-1.99-2.05-1.98-4.65,0-9.3.04-13.95.1-.58,0-1.17.21-1.73.4-4.41,1.5-6.44,5.68-4.65,9.98.8,1.93,1.05,3.85,1.14,5.89.21,4.76,2.79,7.95,6.98,9.97,1.46.71,2.95.77,4.52.33,4.57-1.28,7.39-4.63,7.63-9.64.12-2.54.64-4.92,1.43-7.31.51-1.56.65-3.24.96-4.86Zm-85.12,8.71c-.16-4.99-1.86-8.46-4.93-11.08-3.76-3.2-9.26-3.26-12.95-.44-1.92,1.47-3.44,3.32-4.44,5.52-1.07,2.34-1.65,4.96-.53,7.26.89,1.83,1.53,3.7,2.29,5.56,2.8,6.83,10.33,8.5,15.74,3.55,2.86-2.62,2.96-5.7.13-8.34-.94-.87-2.12-1.54-3.3-2.09-1.29-.6-2.71-.91-4.05-1.41-1.49-.56-2.72-.4-3.92.76-.74.72-1.7,1.33-2.68,1.67-.53.19-1.5-.09-1.89-.51-.39-.42-.54-1.35-.38-1.94.57-2.06,3.7-4.27,5.98-4.42,4.5-.29,8.43,1.24,12.05,3.76.76.53,1.48,1.1,2.88,2.15Zm40.76,8.38c-6.2,1.39-12.27,1.36-18.2-.15-.8,1.37-.07,2.15.65,2.69,2.28,1.7,4.61,3.33,6.98,4.9,1.08.72,2.28.59,3.36-.12,2.08-1.37,4.17-2.74,6.21-4.18.9-.63,1.61-1.44,1-3.14Zm-12.8,11.56c-1.99-2.17-4.52-3.48-6.93-4.91-.36-.21-1.15,0-1.56.28-.24.16-.3.98-.11,1.29,1.46,2.38,2.61,5.01,4.98,6.78,1.7-.71,2.88-1.74,3.61-3.45Zm11.15,3.77c2.3-2.3,3.59-4.56,4.9-6.79.19-.32.15-1.11-.08-1.28-.41-.3-1.18-.57-1.58-.38-2.44,1.17-4.81,2.48-6.81,4.9,1.15,1.15,2.19,2.19,3.57,3.56Zm-54.17-5.82c-.69,2.16-.14,3.55,1.64,4.4,1.67.8,3.38.59,4.55-.78.47-.55.88-1.55.7-2.16-.17-.6-1.09-1.31-1.75-1.4-1.62-.2-3.29-.07-5.14-.07Zm85.12.41c.89,1.58,1.74,3.07,3.65,3.49,1.3-.88,2.59-1.66,2.87-3.5-2.19-.78-4.25-.42-6.52.01ZM7.68,59.23c-.76,1.9-.16,2.97,1.03,3.77.88.59,1.72,1.69,3.34.62-1.24-1.65-2.52-2.98-4.36-4.39Zm20.4,5.18c2.69-.37,4.07-1.29,5.03-2.81.48-.76.38-1.58-.77-2.17-1.23,1.43-2.47,2.88-4.27,4.98Z"/>
      <path class="cls-1" d="m119.1,85.78c0,1.78.05,3.57-.02,5.35-.04,1.05-.59,1.8-1.74,1.92-1.13.12-2.07-.53-2.35-1.72-.16-.69-.19-1.41-.2-2.12-.02-2.5-.01-5,0-7.49,0-.59.02-1.19.13-1.78.29-1.62,1.05-2.42,2.18-2.37,1.15.05,1.9.85,2,2.51.11,1.9.03,3.8.03,5.71-.01,0-.02,0-.04,0Z"/>
      <path class="cls-1" d="m12.23,86.55c0,1.55.05,3.1-.02,4.65-.05,1.08-.65,1.79-1.79,1.85-1.07.06-1.85-.45-2.21-1.46-.16-.44-.24-.93-.24-1.4-.02-2.38-.03-4.77,0-7.15,0-.47.11-.95.28-1.39.4-1.02,1.23-1.42,2.28-1.33.96.08,1.58.68,1.63,1.6.09,1.54.02,3.09.02,4.64.01,0,.03,0,.04,0Z"/>
      <path class="cls-1" d="m39.4,87.33c.16-1.37.22-2.68.48-3.95.21-1.02.98-1.61,2.06-1.64,1.09-.03,2.04.52,2.1,1.53.16,2.7.17,5.41.04,8.11-.05.98-.9,1.66-2.01,1.66-1.08,0-1.9-.56-2.12-1.56-.31-1.38-.38-2.8-.55-4.16Z"/>
      <path class="cls-1" d="m87.68,87.34c-.06,1.31-.07,2.62-.2,3.92-.1,1.07-.72,1.75-1.86,1.78-1.09.03-2.06-.5-2.11-1.53-.16-2.72-.18-5.46-.03-8.18.06-1.16,1.25-1.74,2.42-1.58,1.15.17,1.55.98,1.68,2,.03.24.04.48.04.71,0,.95,0,1.91,0,2.86.02,0,.04,0,.06,0Z"/>
      <path class="cls-1" d="m47.43,23.95c.18-.97.37-1.9.54-2.83.29-1.57,1.27-2.6,2.76-2.95,1.84-.43,3.73-.8,5.62-.9,2.73-.16,5.48,0,8.21-.07,4.45-.12,8.42,1.35,12.14,3.61.7.43,1.34.99,1.91,1.58.67.7,1.23,1.57.64,2.56-.69,1.15-1.81.92-2.87.61-.45-.13-.9-.33-1.3-.58-6.36-3.93-13.42-3.6-20.46-3.3-1.64.07-1.96.5-2.21,2.21-.1.7-.08,1.43-.21,2.12-.23,1.19-.98,1.89-2.23,1.9-1.25,0-1.99-.7-2.27-1.87-.16-.69-.19-1.4-.28-2.09Z"/>
      <path class="cls-1" d="m102.13,40.21c3.6-.29,6.25.31,8.79,1.41,1.77.76,2.45,1.76,2.11,2.85-.35,1.11-1.61,1.73-3.31,1.16-2.87-.96-5.79-1.18-8.77-1.29-.9-.03-1.93-.34-2.63-.87-.54-.41-.91-1.4-.85-2.09.03-.43.97-1.03,1.57-1.11,1.28-.17,2.6-.05,3.1-.05Z"/>
    </g>
  </g>
</svg>